<svg xmlns="http://www.w3.org/2000/svg" width="237.551" height="237.366" viewBox="0 0 237.551 237.366">
  <g id="Schedule-amico" transform="translate(-15.28 -34.065)">
    <g id="freepik--Floor--inject-2" transform="translate(15.28 125.883)">
      <ellipse id="freepik--floor--inject-2-2" data-name="freepik--floor--inject-2" cx="118.776" cy="72.774" rx="118.776" ry="72.774" fill="#f0f0f0"/>
    </g>
    <g id="freepik--Shadows--inject-2" transform="translate(18.239 155.606)">
      <path id="freepik--Shadow--inject-2" d="M340.118,292.111,323.57,281.825a.711.711,0,0,1,0-1.314l21.1-13.159a2.153,2.153,0,0,1,2.1,0L363.3,277.633a.712.712,0,0,1,0,1.308l-21.083,13.17a2.18,2.18,0,0,1-2.1,0Z" transform="translate(-170.632 -261.598)" fill="#e0e0e0"/>
      <ellipse id="freepik--shadow--inject-2-2" data-name="freepik--shadow--inject-2" cx="25.486" cy="18.703" rx="25.486" ry="18.703" transform="translate(178.959 28.011)" fill="#e0e0e0"/>
      <path id="freepik--shadow--inject-2-3" data-name="freepik--shadow--inject-2" d="M61.8,345.2,21.574,320.124a.706.706,0,0,1,0-1.3L84.6,279.545a2.138,2.138,0,0,1,2.08,0l40.237,25.076a.706.706,0,0,1,0,1.3L63.876,345.2A2.138,2.138,0,0,1,61.8,345.2Z" transform="translate(-21.139 -267.146)" fill="#e0e0e0"/>
      <path id="freepik--shadow--inject-2-4" data-name="freepik--shadow--inject-2" d="M111.648,331.1l9.3,5.795a2.591,2.591,0,0,0,2.525,0L239.2,264.769a.855.855,0,0,0,0-1.575l-9.377-5.844a2.619,2.619,0,0,0-2.525,0l-115.65,72.163A.863.863,0,0,0,111.648,331.1Z" transform="translate(-65.684 -257.025)" fill="#e0e0e0"/>
    </g>
    <g id="freepik--Gears--inject-2" transform="translate(34.795 40.444)">
      <g id="freepik--gears--inject-2-2" data-name="freepik--gears--inject-2" transform="translate(0 0)">
        <path id="Tracciato_4" data-name="Tracciato 4" d="M75.518,61h0a.393.393,0,0,0-.429.038l-.884.616-.2.545a1.152,1.152,0,0,0,.242,1.036,4.491,4.491,0,0,1,.4.518.579.579,0,0,0,.828.191l2.065-1.428a.389.389,0,0,1,.419-.044Zm-3.181,7.964c-.288-1.755-1.353-2.638-2.737-2.518a4.773,4.773,0,0,1,.288,1.03c.454,2.786-1.227,6.738-3.752,8.831a5.025,5.025,0,0,1-2.651,1.227c.833,1.87,2.929,2.044,5.11.24C71.12,75.7,72.8,71.749,72.337,68.963Zm.045-11.911h0a.484.484,0,0,0-.162-.071l-1.555-.365a.816.816,0,0,0-.879.425L68.317,59.98a1.27,1.27,0,0,1-.323.392h0a1.6,1.6,0,0,1-.247.174l.454,1.6a.566.566,0,0,0,.294.358.5.5,0,0,0,.443,0,7.138,7.138,0,0,1,.959-.333,1.579,1.579,0,0,0,.53-.3,1.327,1.327,0,0,0,.333-.4l1.459-2.933a.831.831,0,0,1,.884-.425l1.56.365a.641.641,0,0,1,.151.06ZM68,85.4a.474.474,0,0,1-.146-.245l-.5-1.837a.558.558,0,0,0-.306-.359.5.5,0,0,0-.451.026,6.805,6.805,0,0,1-.954.327,1.237,1.237,0,0,0-.3.136l.071.234a.467.467,0,0,0,.2.283h0ZM65.019,58.513a.384.384,0,0,0-.172-.044.435.435,0,0,0-.288.114l-2.333,1.924a.713.713,0,0,0-.091.087.435.435,0,0,0-.061.076,1.711,1.711,0,0,0-.207.387v.093h0a1.127,1.127,0,0,0-.066.392l.121,2.36a1.914,1.914,0,0,1-.364,1.128c-.384.48-.742.987-1.081,1.5a1.191,1.191,0,0,1-.5.414.783.783,0,0,1-.2.065.323.323,0,0,1-.1,0,.384.384,0,0,1-.136,0l-1.515-.076h-.035a.5.5,0,0,0-.126,0,.38.38,0,0,0-.106.027h0a.564.564,0,0,0-.121.049,1.168,1.168,0,0,0-.217.142.976.976,0,0,0-.242.322l-1.389,3.358a.636.636,0,0,0,.232.8l1.646.992a.773.773,0,0,1,.035.452q-.167.783-.258,1.581a2.013,2.013,0,0,1-.5,1.09H56.91l-2.02,1.973a.53.53,0,0,0-.1.114h0a.482.482,0,0,0-.081.142,1.307,1.307,0,0,0-.157.79l.389,2.366a.459.459,0,0,0,.182.322l2.414,1.526a.472.472,0,0,1-.172-.316L56.975,80.3a1.264,1.264,0,0,1,0-.452,1.344,1.344,0,0,1,.323-.621l2.02-1.968h0a2.052,2.052,0,0,0,.5-1.09q.093-.8.263-1.581a.811.811,0,0,0-.343-.872l-1.217-.545a.606.606,0,0,1-.322-.348.673.673,0,0,1,.009-.492l1.409-3.32a.911.911,0,0,1,.242-.322.892.892,0,0,1,.621-.234L62,68.533a.974.974,0,0,0,.434-.093,1.191,1.191,0,0,0,.5-.414,16.127,16.127,0,0,1,1.081-1.5,1.918,1.918,0,0,0,.348-1.134l-.141-2.328a1.276,1.276,0,0,1,.056-.4,1.365,1.365,0,0,1,.389-.638l2.343-1.93a.377.377,0,0,1,.46-.071Zm-3.5,24.738a1.117,1.117,0,0,0-.247-1.03,4.395,4.395,0,0,1-.4-.545.585.585,0,0,0-.828-.2l-1.177.818-.858,2.437a.568.568,0,0,0,.207.665h0l2.464,1.494a.567.567,0,0,1-.212-.671Z" transform="translate(-54.231 -50.694)" fill="#e0e0e0"/>
        <path id="Tracciato_5" data-name="Tracciato 5" d="M59.392,93.286l-2.02,1.968a1.344,1.344,0,0,0-.323.621L54.6,94.393a1.525,1.525,0,0,1,.126-.343.482.482,0,0,1,.081-.142h0a.53.53,0,0,1,.1-.114l2.02-1.973Z" transform="translate(-54.26 -66.715)" fill="#fafafa"/>
        <path id="Tracciato_6" data-name="Tracciato 6" d="M65.229,77.074a.974.974,0,0,1-.434.093L63.28,77.09a.892.892,0,0,0-.621.234l-2.439-1.51a1.169,1.169,0,0,1,.217-.142.564.564,0,0,1,.121-.049h0a.38.38,0,0,1,.106-.027.5.5,0,0,1,.126,0h.035l1.515.076a.384.384,0,0,0,.136,0h.1a.667.667,0,0,0,.192-.065h0Z" transform="translate(-57.042 -59.334)" fill="#fafafa"/>
        <path id="Tracciato_7" data-name="Tracciato 7" d="M97.007,66.1a.385.385,0,0,0-.419.054l-2.07,1.428a.584.584,0,0,1-.828-.2,4.073,4.073,0,0,0-.4-.545,1.111,1.111,0,0,1-.242-1.03l.2-.545.884-.611a.384.384,0,0,1,.429-.044h0Z" transform="translate(-73.271 -54.318)" fill="#fafafa"/>
        <path id="Tracciato_8" data-name="Tracciato 8" d="M88.017,58.54a.641.641,0,0,0-.152-.06l-1.56-.365a.831.831,0,0,0-.884.425l-1.459,2.933a1.327,1.327,0,0,1-.333.4L81.18,60.377a1.271,1.271,0,0,0,.323-.392l1.469-2.933a.816.816,0,0,1,.879-.425l1.555.365a.485.485,0,0,1,.162.071h0Z" transform="translate(-67.417 -50.699)" fill="#fafafa"/>
        <path id="Tracciato_9" data-name="Tracciato 9" d="M74.631,61.606a.377.377,0,0,0-.46.071L71.838,63.6a1.365,1.365,0,0,0-.389.638L69,62.762v-.093a1.711,1.711,0,0,1,.207-.387.435.435,0,0,1,.061-.076.712.712,0,0,1,.091-.087l2.333-1.924a.435.435,0,0,1,.288-.114.385.385,0,0,1,.172.044Z" transform="translate(-61.388 -52.277)" fill="#fafafa"/>
        <path id="Tracciato_10" data-name="Tracciato 10" d="M80.923,66.4l-.389-2.36a.4.4,0,0,0-.225-.345.348.348,0,0,0-.386.067l-2.07,1.423a.584.584,0,0,1-.828-.2,4.492,4.492,0,0,0-.4-.518,1.152,1.152,0,0,1-.242-1.036l1.055-2.993a.584.584,0,0,0-.016-.484.508.508,0,0,0-.367-.279l-1.555-.365a.827.827,0,0,0-.879.431l-1.464,2.927a1.528,1.528,0,0,1-.884.7,7.138,7.138,0,0,0-.959.333.5.5,0,0,1-.443,0,.566.566,0,0,1-.294-.358l-.5-1.832A.41.41,0,0,0,69.8,61.2a.369.369,0,0,0-.389.1l-2.333,1.924a1.4,1.4,0,0,0-.444,1.041l.111,2.349a1.914,1.914,0,0,1-.364,1.128,18.355,18.355,0,0,0-1.081,1.5,1.188,1.188,0,0,1-.949.507l-1.515-.076a.95.95,0,0,0-.864.545L60.563,73.54a.672.672,0,0,0-.01.512.6.6,0,0,0,.348.349l1.212.545a.807.807,0,0,1,.419.878,15,15,0,0,0-.263,1.581,2.013,2.013,0,0,1-.5,1.09l-2.065,2a1.366,1.366,0,0,0-.348,1.09l.389,2.366a.4.4,0,0,0,.227.348.352.352,0,0,0,.39-.065L62.421,82.8a.58.58,0,0,1,.828.2,4.429,4.429,0,0,0,.4.545,1.111,1.111,0,0,1,.242,1.03L62.84,87.484a.584.584,0,0,0,.027.47.508.508,0,0,0,.356.272l1.555.365a.826.826,0,0,0,.884-.425l1.464-2.933a1.528,1.528,0,0,1,.884-.7,6.656,6.656,0,0,0,.959-.333.5.5,0,0,1,.44,0,.565.565,0,0,1,.292.355l.5,1.837a.414.414,0,0,0,.269.316.373.373,0,0,0,.387-.1l2.333-1.93a1.4,1.4,0,0,0,.439-1.036L73.5,81.314a1.914,1.914,0,0,1,.364-1.128c.379-.48.742-.981,1.081-1.5a1.188,1.188,0,0,1,.949-.507l1.515.082a.956.956,0,0,0,.858-.545L79.686,74.4a.661.661,0,0,0,.017-.5.593.593,0,0,0-.335-.349l-1.212-.545a.8.8,0,0,1-.414-.878A14.74,14.74,0,0,0,78,70.547a2.035,2.035,0,0,1,.5-1.09l2.07-2A1.359,1.359,0,0,0,80.923,66.4ZM70.965,79.019c-2.525,2.088-4.944,1.521-5.4-1.27s1.222-6.738,3.747-8.8,4.949-1.521,5.4,1.27S73.495,76.931,70.965,79.019Z" transform="translate(-56.607 -51.924)" fill="#f0f0f0"/>
        <path id="Tracciato_11" data-name="Tracciato 11" d="M78.172,129.64h0a.474.474,0,0,0-.5.044l-1.01.709-.222.643a1.3,1.3,0,0,0,.278,1.2,5.429,5.429,0,0,1,.465.6.68.68,0,0,0,.959.223l2.389-1.635a.442.442,0,0,1,.5-.055ZM74.5,138.847c-.338-2.028-1.57-3.047-3.166-2.906a5.323,5.323,0,0,1,.328,1.188c.5,3.222-1.414,7.79-4.338,10.2a5.783,5.783,0,0,1-3.06,1.45c.959,2.18,3.383,2.36,5.9.278C73.087,146.643,75.026,142.069,74.5,138.847Zm.05-13.764h0A.562.562,0,0,0,74.36,125l-1.8-.425a.95.95,0,0,0-1.01.5l-1.7,3.391a1.508,1.508,0,0,1-.374.447h0a1.511,1.511,0,0,1-.288.207l.5,1.848a.646.646,0,0,0,.338.412.57.57,0,0,0,.51-.009,9.176,9.176,0,0,1,1.111-.382,1.825,1.825,0,0,0,.641-.349,1.508,1.508,0,0,0,.384-.458l1.687-3.391a.984.984,0,0,1,1.01-.5l1.8.431a.576.576,0,0,1,.177.065ZM69.5,157.878a.553.553,0,0,1-.167-.289l-.611-2.121a.646.646,0,0,0-.337-.415.57.57,0,0,0-.511.007,7.364,7.364,0,0,1-1.106.382,1.528,1.528,0,0,0-.353.158l.081.273a.542.542,0,0,0,.232.327h0Zm-3.449-31.072a.414.414,0,0,0-.2-.055.485.485,0,0,0-.328.136l-2.7,2.224a.944.944,0,0,0-.1.1.573.573,0,0,0-.071.087,1.71,1.71,0,0,0-.237.442.145.145,0,0,1-.03.109h0a1.292,1.292,0,0,0-.071.458l.157,2.7a2.178,2.178,0,0,1-.419,1.3q-.664.835-1.247,1.739a1.411,1.411,0,0,1-.833.545.388.388,0,0,1-.111,0,.514.514,0,0,1-.157,0l-1.732-.087h-.04a.594.594,0,0,0-.141,0,.378.378,0,0,0-.131.027h0a.829.829,0,0,0-.146.06,1.24,1.24,0,0,0-.247.164,1.127,1.127,0,0,0-.278.371l-1.626,3.816a.744.744,0,0,0,.273.921l1.924,1.167a.925.925,0,0,1,.04.545,18.369,18.369,0,0,0-.3,1.826,2.35,2.35,0,0,1-.581,1.248h-.03l-2.363,2.279a1.451,1.451,0,0,0-.116.136h0a.918.918,0,0,0-.1.164,1.5,1.5,0,0,0-.177.921l.449,2.726a.554.554,0,0,0,.207.371l2.828,1.706a.5.5,0,0,1-.2-.36l-.449-2.726a1.244,1.244,0,0,1,.03-.545,1.518,1.518,0,0,1,.369-.714l2.343-2.164h.03a2.359,2.359,0,0,0,.586-1.243,17.14,17.14,0,0,1,.3-1.832.927.927,0,0,0-.5-1.014l-1.4-.627a.7.7,0,0,1-.374-.4.778.778,0,0,1,.01-.569l1.626-3.816a1.032,1.032,0,0,1,.278-.376,1.119,1.119,0,0,1,.717-.273l1.737.093a1.1,1.1,0,0,0,.5-.1,1.333,1.333,0,0,0,.6-.485c.394-.6.813-1.183,1.252-1.739a2.2,2.2,0,0,0,.419-1.3l-.162-2.693a1.275,1.275,0,0,1,.066-.463,1.551,1.551,0,0,1,.449-.736l2.686-2.251a.476.476,0,0,1,.535-.076Zm-4.04,28.6a1.307,1.307,0,0,0-.283-1.194,4.435,4.435,0,0,1-.465-.6.671.671,0,0,0-.954-.229l-1.363.943-1.01,2.818a.635.635,0,0,0,.242.763h0l2.853,1.723a.647.647,0,0,1-.237-.774Z" transform="translate(-53.926 -81.607)" fill="#e0e0e0"/>
        <path id="Tracciato_12" data-name="Tracciato 12" d="M59.555,166.961,57.2,169.239a1.518,1.518,0,0,0-.369.714L54,168.236a2.168,2.168,0,0,1,.141-.4.918.918,0,0,1,.1-.164h0a1.453,1.453,0,0,1,.116-.136l2.363-2.279Z" transform="translate(-53.963 -100.121)" fill="#fafafa"/>
        <path id="Tracciato_13" data-name="Tracciato 13" d="M66.3,148.237a1.1,1.1,0,0,1-.5.1l-1.737-.093a1.119,1.119,0,0,0-.717.273l-2.853-1.734a1.24,1.24,0,0,1,.247-.164.829.829,0,0,1,.146-.06h0a.378.378,0,0,1,.131-.027.594.594,0,0,1,.141,0h.04l1.732.087a.515.515,0,0,0,.157,0,.778.778,0,0,0,.111,0,1.915,1.915,0,0,0,.227-.082h0Z" transform="translate(-57.175 -91.602)" fill="#fafafa"/>
        <path id="Tracciato_14" data-name="Tracciato 14" d="M103,135.514a.442.442,0,0,0-.5.06l-2.389,1.635a.676.676,0,0,1-.959-.229,5.333,5.333,0,0,0-.465-.6,1.261,1.261,0,0,1-.278-1.194l.222-.638,1.01-.709a.437.437,0,0,1,.5-.049h0Z" transform="translate(-75.919 -85.78)" fill="#fafafa"/>
        <path id="Tracciato_15" data-name="Tracciato 15" d="M92.633,126.8a.576.576,0,0,0-.177-.065l-1.8-.431a.984.984,0,0,0-1.01.5l-1.687,3.391a1.508,1.508,0,0,1-.384.458L84.74,128.92a1.508,1.508,0,0,0,.374-.447l1.7-3.391a.95.95,0,0,1,1.01-.5l1.8.425a.561.561,0,0,1,.192.082h0Z" transform="translate(-69.18 -81.612)" fill="#fafafa"/>
        <path id="Tracciato_16" data-name="Tracciato 16" d="M77.149,130.337a.476.476,0,0,0-.535.076l-2.692,2.23a1.551,1.551,0,0,0-.449.736l-2.833-1.717a.158.158,0,0,1,.03-.109,1.71,1.71,0,0,1,.237-.442.57.57,0,0,1,.071-.087.944.944,0,0,1,.1-.1l2.7-2.224a.485.485,0,0,1,.328-.136.414.414,0,0,1,.2.055Z" transform="translate(-62.2 -83.427)" fill="#fafafa"/>
        <path id="Tracciato_17" data-name="Tracciato 17" d="M84.417,135.913l-.449-2.726a.464.464,0,0,0-.261-.405.4.4,0,0,0-.451.078L80.872,134.5a.676.676,0,0,1-.959-.229,5.24,5.24,0,0,0-.465-.6,1.284,1.284,0,0,1-.278-1.194l1.217-3.456a.677.677,0,0,0-.031-.546.589.589,0,0,0-.413-.316l-1.8-.42a.955.955,0,0,0-1.01.5l-1.687,3.385a1.8,1.8,0,0,1-1.01.807,8.824,8.824,0,0,0-1.106.382.575.575,0,0,1-.512.009.65.65,0,0,1-.341-.412l-.621-2.115a.479.479,0,0,0-.311-.373.431.431,0,0,0-.452.117l-2.692,2.23a1.609,1.609,0,0,0-.5,1.2l.162,2.693a2.178,2.178,0,0,1-.419,1.3,21.4,21.4,0,0,0-1.252,1.744,1.37,1.37,0,0,1-1.1.583l-1.732-.093a1.106,1.106,0,0,0-1.01.643l-1.631,3.816a.778.778,0,0,0-.01.569.7.7,0,0,0,.374.4l1.4.627a.927.927,0,0,1,.5,1.014,18.477,18.477,0,0,0-.3,1.832,2.333,2.333,0,0,1-.626,1.265l-2.389,2.306a1.572,1.572,0,0,0-.4,1.237l.449,2.726a.463.463,0,0,0,.263.4.4.4,0,0,0,.449-.08l2.383-1.635a.676.676,0,0,1,.959.224,4.437,4.437,0,0,0,.465.6,1.29,1.29,0,0,1,.278,1.194L63.5,160.291a.677.677,0,0,0,.035.544.589.589,0,0,0,.414.312l1.8.425a.984.984,0,0,0,1.01-.5l1.692-3.385a1.749,1.749,0,0,1,1.01-.807,8.622,8.622,0,0,0,1.106-.387.58.58,0,0,1,.512,0,.656.656,0,0,1,.341.413l.606,2.121a.478.478,0,0,0,.312.369.431.431,0,0,0,.45-.118l2.692-2.224a1.62,1.62,0,0,0,.5-1.2l-.162-2.693a2.189,2.189,0,0,1,.419-1.3,21.031,21.031,0,0,0,1.252-1.739,1.37,1.37,0,0,1,1.1-.583l1.732.087a1.1,1.1,0,0,0,1.01-.643l1.631-3.816a.778.778,0,0,0,.01-.569.7.7,0,0,0-.374-.4l-1.4-.627a.921.921,0,0,1-.5-1.014,18.372,18.372,0,0,0,.3-1.826,2.319,2.319,0,0,1,.586-1.243l2.389-2.311A1.553,1.553,0,0,0,84.417,135.913ZM72.908,150.49c-2.924,2.415-5.721,1.761-6.247-1.466s1.409-7.79,4.333-10.2,5.716-1.755,6.247,1.466S75.827,148.08,72.908,150.49Z" transform="translate(-56.666 -83.045)" fill="#f0f0f0"/>
        <path id="Tracciato_18" data-name="Tracciato 18" d="M119.155,87.732a1.266,1.266,0,0,0-.061-1.09,9.872,9.872,0,0,1-.934-2.18.534.534,0,0,0-.277-.341.471.471,0,0,0-.42,0l-1.01.48a6.138,6.138,0,0,0,.333.638,1.284,1.284,0,0,1,.061,1.09l-2.787,5.9a.693.693,0,0,0,.247.861l2.288,1.385a.7.7,0,0,1-.222-.85Zm12.372-41.064a.281.281,0,0,0-.146-.038.425.425,0,0,0-.232.071l-4.7,2.846-.071.049-.071.06-.066.065q-.064.076-.121.158a1.252,1.252,0,0,0-.227.589l-.475,5.484a1.825,1.825,0,0,1-.5,1.03,29.971,29.971,0,0,0-2.565,2.9.875.875,0,0,1-.924.273l-3.03-1.09a.5.5,0,0,0-.237-.033h0a.042.042,0,0,0-.035,0,.127.127,0,0,0-.045,0h-.086a.641.641,0,0,0-.263.147.128.128,0,0,0-.05.044.4.4,0,0,0-.116.147l-3.449,6.274a.775.775,0,0,0-.076.463.73.73,0,0,0,.232.5l2.419,2.18a.983.983,0,0,1,.232.976,30.7,30.7,0,0,0-1.086,3.816,1.69,1.69,0,0,1-.268.583.575.575,0,0,1-.081.114l-.076.1a2.254,2.254,0,0,1-.177.164l-4.287,3.173a.311.311,0,0,0-.081.065.356.356,0,0,0-.071.082,1.355,1.355,0,0,0-.328.818v5.7a.415.415,0,0,0,.167.365l2.313,1.4a.42.42,0,0,1-.172-.371V80.078a1.359,1.359,0,0,1,.187-.632,1.175,1.175,0,0,1,.293-.343l4.287-3.167a1.478,1.478,0,0,0,.333-.365,1.873,1.873,0,0,0,.268-.594,31.515,31.515,0,0,1,1.086-3.816.983.983,0,0,0-.232-.976L116.579,68a.746.746,0,0,1-.227-.48.716.716,0,0,1,.076-.458l3.449-6.274a.715.715,0,0,1,.576-.365.573.573,0,0,1,.273.033l3.03,1.09a.875.875,0,0,0,.929-.278,28.652,28.652,0,0,1,2.606-2.9,1.819,1.819,0,0,0,.5-1.025l.409-5.457a.984.984,0,0,1,.086-.327,1.281,1.281,0,0,1,.47-.594l4.7-2.895a.407.407,0,0,1,.354-.049ZM128.35,95.5a.437.437,0,0,1-.157-.327l-.454-4.786a.553.553,0,0,0-.218-.387.474.474,0,0,0-.414-.076,8.492,8.492,0,0,1-1.57.223l.348,3.636a.4.4,0,0,0,.182.327h0ZM135.7,61.157a7.892,7.892,0,0,1,1.01,4.421c0,5.31-3.535,11.769-7.933,14.429-1.707,1.036-3.161,1.379-4.3,1.09,1.419,1.739,3.848,1.973,6.61.3,4.383-2.655,7.933-9.114,7.933-14.429C139.041,63.741,137.723,61.7,135.7,61.157Zm4.545-15.307a.613.613,0,0,0-.828.207l-3.474,5.451a.347.347,0,0,1-.051.071.321.321,0,0,1-.081.087.187.187,0,0,1-.045.044l-.051.038a1.172,1.172,0,0,1-.682.24,5.794,5.794,0,0,0-.687,0l.111,1.161a.553.553,0,0,0,.216.385.475.475,0,0,0,.41.079,9.218,9.218,0,0,1,2.262-.24,1.123,1.123,0,0,0,.677-.234.831.831,0,0,0,.227-.24l3.474-5.484a.608.608,0,0,1,.818-.207Zm6.721,10.183h-.076a.424.424,0,0,0-.288.038l-3.166,1.5a4.962,4.962,0,0,1,.217.474c.061.136.116.283.167.431a.252.252,0,0,1,.03.087,4.071,4.071,0,0,1,.157.463.533.533,0,0,1,.03.082.6.6,0,0,0,.121.229l.061.055h.04a.248.248,0,0,0,.121.055h.04a.422.422,0,0,0,.2,0h0a.264.264,0,0,0,.091-.033l4.181-1.979a.367.367,0,0,1,.308,0,.089.089,0,0,1,.056,0Z" transform="translate(-81.916 -45.766)" fill="#e0e0e0"/>
        <path id="Tracciato_19" data-name="Tracciato 19" d="M167.307,47.283a.608.608,0,0,0-.818.207l-3.474,5.484a.831.831,0,0,1-.227.24l-2.308-1.4h0a.478.478,0,0,0,.1-.076.321.321,0,0,0,.081-.087.346.346,0,0,0,.05-.071l3.474-5.451a.613.613,0,0,1,.828-.207Z" transform="translate(-106.673 -45.798)" fill="#fafafa"/>
        <path id="Tracciato_20" data-name="Tracciato 20" d="M118.021,99.271a1.478,1.478,0,0,1-.333.365L113.4,102.8a1.176,1.176,0,0,0-.293.343l-2.3-1.39a1.019,1.019,0,0,1,.131-.191.356.356,0,0,1,.071-.082.311.311,0,0,1,.081-.065l4.287-3.173a2.254,2.254,0,0,0,.177-.164l.076-.1.081-.114h0Z" transform="translate(-82.085 -69.467)" fill="#fafafa"/>
        <path id="Tracciato_21" data-name="Tracciato 21" d="M123.9,71.49a.715.715,0,0,0-.576.365l-3.449,6.274a.716.716,0,0,0-.076.458l-2.308-1.4a.775.775,0,0,1,.076-.463l3.449-6.274a.4.4,0,0,1,.116-.147.129.129,0,0,1,.051-.044.641.641,0,0,1,.263-.147h.086a.127.127,0,0,1,.045,0,.042.042,0,0,1,.035,0h0Z" transform="translate(-85.389 -56.841)" fill="#fafafa"/>
        <path id="Tracciato_22" data-name="Tracciato 22" d="M149.022,48.817a.407.407,0,0,0-.354.049l-4.7,2.851a1.281,1.281,0,0,0-.47.594l-2.3-1.4a1.573,1.573,0,0,1,.136-.262q.057-.082.121-.158l.066-.065.071-.06.071-.049,4.7-2.846a.425.425,0,0,1,.232-.071.281.281,0,0,1,.146.038Z" transform="translate(-97.129 -46.509)" fill="#fafafa"/>
        <path id="Tracciato_23" data-name="Tracciato 23" d="M179.33,64.579l2.308,1.406a.089.089,0,0,0-.056,0,.367.367,0,0,0-.308,0l-4.181,1.979a.478.478,0,0,1-.571-.109.6.6,0,0,1-.121-.229.54.54,0,0,0-.03-.082,4.08,4.08,0,0,0-.157-.463.252.252,0,0,0-.03-.087c-.05-.147-.106-.294-.167-.431a4.95,4.95,0,0,0-.217-.474l3.166-1.5a.424.424,0,0,1,.288-.038l.076.033Z" transform="translate(-114.257 -54.307)" fill="#fafafa"/>
        <rect id="Rettangolo_7" data-name="Rettangolo 7" width="0.005" height="0.005" transform="translate(67.381 11.679)" fill="#fafafa"/>
        <path id="Tracciato_24" data-name="Tracciato 24" d="M151.644,64.666V58.975a.388.388,0,0,0-.159-.368.327.327,0,0,0-.376,0l-4.181,1.979a.471.471,0,0,1-.414,0,.534.534,0,0,1-.273-.335,10.105,10.105,0,0,0-.929-2.181,1.284,1.284,0,0,1-.066-1.063l2.787-5.9a.687.687,0,0,0-.247-.861l-3.03-1.832a.608.608,0,0,0-.833.2L140.449,54.1a1.118,1.118,0,0,1-.9.474,8.937,8.937,0,0,0-2.262.24.475.475,0,0,1-.41-.079.553.553,0,0,1-.216-.385l-.46-4.792a.383.383,0,0,0-.184-.356.328.328,0,0,0-.376.034l-4.7,2.851a1.325,1.325,0,0,0-.555.921l-.48,5.495a1.836,1.836,0,0,1-.5,1.025,29.315,29.315,0,0,0-2.611,2.9.871.871,0,0,1-.919.278l-3.03-1.09a.721.721,0,0,0-.848.327l-3.449,6.28a.8.8,0,0,0,.151.938l2.419,2.18a.977.977,0,0,1,.232.976,30.778,30.778,0,0,0-1.086,3.816,1.815,1.815,0,0,1-.6.954l-4.287,3.173a1.352,1.352,0,0,0-.5.97v5.691a.388.388,0,0,0,.159.368.327.327,0,0,0,.376,0l4.176-1.979a.471.471,0,0,1,.42,0,.534.534,0,0,1,.277.341,9.871,9.871,0,0,0,.934,2.18,1.266,1.266,0,0,1,.061,1.09l-2.782,5.9a.676.676,0,0,0,.242.856l3.03,1.832a.612.612,0,0,0,.833-.2l3.469-5.484a1.137,1.137,0,0,1,.909-.474,8.961,8.961,0,0,0,2.262-.24.474.474,0,0,1,.41.079.553.553,0,0,1,.216.385l.454,4.792a.386.386,0,0,0,.2.341.332.332,0,0,0,.37-.036l4.7-2.851a1.324,1.324,0,0,0,.561-.921l.51-5.5a1.881,1.881,0,0,1,.5-1.025,29.271,29.271,0,0,0,2.606-2.9.865.865,0,0,1,.924-.273l3.03,1.09a.711.711,0,0,0,.843-.327L148,77.683a.8.8,0,0,0-.146-.938l-2.419-2.18a.977.977,0,0,1-.237-.976,29.928,29.928,0,0,0,1.086-3.816,1.9,1.9,0,0,1,.6-.954l4.292-3.173a1.362,1.362,0,0,0,.465-.981ZM133.284,82.573c-4.378,2.66-7.928.507-7.928-4.808s3.535-11.775,7.928-14.429,7.933-.507,7.933,4.808S137.657,79.918,133.284,82.573Z" transform="translate(-84.092 -46.931)" fill="#f0f0f0"/>
      </g>
    </g>
    <g id="freepik--Books--inject-2" transform="translate(18.643 128.706)">
      <g id="freepik--books--inject-2-2" data-name="freepik--books--inject-2">
        <g id="freepik--Book--inject-2" transform="translate(6.125 29.197)">
          <path id="Tracciato_25" data-name="Tracciato 25" d="M34.07,320.4l34.646,21.32,57.234-35.46L91.309,285.45Z" transform="translate(-34.07 -272.253)"/>
          <path id="Tracciato_26" data-name="Tracciato 26" d="M70.521,360.619,37.1,339.9a16.057,16.057,0,0,0-.182-9.354l33.207,20.486S70.764,353.3,70.521,360.619Z" transform="translate(-35.481 -292.768)" fill="#fff"/>
          <path id="Tracciato_27" data-name="Tracciato 27" d="M70.127,351.046,36.92,330.56a20.316,20.316,0,0,1,.611,3.074l32.96,20.546A18.284,18.284,0,0,0,70.127,351.046Z" transform="translate(-35.481 -292.772)" fill="#ebebeb"/>
          <path id="Tracciato_28" data-name="Tracciato 28" d="M67.015,345.754a7.73,7.73,0,0,1,3.212,6v6.972c0,2.181-1.434,3.085-3.212,1.99L34.08,340.276v-1.723l32.5,20c1.06.66,1.924.125,1.924-1.194l-.03-6.46a4.643,4.643,0,0,0-1.929-3.581L34.08,327.307V325.35Z" transform="translate(-34.075 -290.402)" fill="#263238"/>
          <path id="Tracciato_29" data-name="Tracciato 29" d="M34.08,296.188,91.314,261.24l32.935,19.9a7.732,7.732,0,0,1,3.212,5.964v6.978a2.473,2.473,0,0,1-.939,2.224l-57.239,35.46a2.479,2.479,0,0,0,.944-2.229v-6.978a7.769,7.769,0,0,0-3.212-6Z" transform="translate(-34.075 -261.24)" fill="#455a64"/>
          <path id="Tracciato_30" data-name="Tracciato 30" d="M103.805,337.9a7.45,7.45,0,0,1,.939,3.4v6.978a2.486,2.486,0,0,1-.944,2.23l57.239-35.46a2.474,2.474,0,0,0,.939-2.224v-6.978a7.45,7.45,0,0,0-.939-3.4Z" transform="translate(-68.588 -279.986)" fill="#37474f"/>
        </g>
        <g id="freepik--book--inject-2-2" data-name="freepik--book--inject-2" transform="translate(6.034 15.062)">
          <path id="Tracciato_31" data-name="Tracciato 31" d="M33.89,290.119l34.859,21.516,53.063-32.871L86.958,257.75Z" transform="translate(-33.89 -245.517)" fill="#ff7609"/>
          <path id="Tracciato_32" data-name="Tracciato 32" d="M33.89,290.119l34.859,21.516,53.063-32.871L86.958,257.75Z" transform="translate(-33.89 -245.517)" fill="#fff" opacity="0.45"/>
          <path id="Tracciato_33" data-name="Tracciato 33" d="M33.89,290.119l34.859,21.516,53.063-32.871L86.958,257.75Z" transform="translate(-33.89 -245.517)" opacity="0.35"/>
          <path id="Tracciato_34" data-name="Tracciato 34" d="M70.419,329.127,36.7,308.183a14.848,14.848,0,0,0-.167-8.673l33.525,20.742S70.641,322.345,70.419,329.127Z" transform="translate(-35.197 -264.513)" fill="#fff"/>
          <path id="Tracciato_35" data-name="Tracciato 35" d="M70.055,320.252,36.53,299.51a20.318,20.318,0,0,1,.611,3.074L70.4,323.3A18.513,18.513,0,0,0,70.055,320.252Z" transform="translate(-35.197 -264.513)" fill="#ebebeb"/>
          <path id="Tracciato_36" data-name="Tracciato 36" d="M67.173,315.346a7.167,7.167,0,0,1,2.974,5.533v6.465c0,2.033-1.328,2.862-2.974,1.843L33.9,308.521v-1.6l32.874,20.295c1.01.611,1.788.114,1.788-1.09l-.03-6a4.3,4.3,0,0,0-1.788-3.32L33.9,296.49v-1.81Z" transform="translate(-33.895 -262.316)" fill="#ff7609"/>
          <path id="Tracciato_37" data-name="Tracciato 37" d="M67.173,315.346a7.167,7.167,0,0,1,2.974,5.533v6.465c0,2.033-1.328,2.862-2.974,1.843L33.9,308.521v-1.6l32.874,20.295c1.01.611,1.788.114,1.788-1.09l-.03-6a4.3,4.3,0,0,0-1.788-3.32L33.9,296.49v-1.81Z" transform="translate(-33.895 -262.316)" fill="#fff" opacity="0.45"/>
          <path id="Tracciato_38" data-name="Tracciato 38" d="M67.173,315.346a7.167,7.167,0,0,1,2.974,5.533v6.465c0,2.033-1.328,2.862-2.974,1.843L33.9,308.521v-1.6l32.874,20.295c1.01.611,1.788.114,1.788-1.09l-.03-6a4.3,4.3,0,0,0-1.788-3.32L33.9,296.49v-1.81Z" transform="translate(-33.895 -262.316)" opacity="0.15"/>
          <path id="Tracciato_39" data-name="Tracciato 39" d="M33.9,267.674,86.973,235.31l33.273,20.17a7.213,7.213,0,0,1,2.974,5.538v6.46a2.3,2.3,0,0,1-.874,2.066L69.3,302.4a2.3,2.3,0,0,0,.874-2.066v-6.471a7.211,7.211,0,0,0-2.979-5.533Z" transform="translate(-33.895 -235.31)" fill="#ff7609"/>
          <path id="Tracciato_40" data-name="Tracciato 40" d="M33.9,267.674,86.973,235.31l33.273,20.17a7.213,7.213,0,0,1,2.974,5.538v6.46a2.3,2.3,0,0,1-.874,2.066L69.3,302.4a2.3,2.3,0,0,0,.874-2.066v-6.471a7.211,7.211,0,0,0-2.979-5.533Z" transform="translate(-33.895 -235.31)" fill="#fff" opacity="0.65"/>
          <path id="Tracciato_41" data-name="Tracciato 41" d="M104,309.553a6.872,6.872,0,0,1,.874,3.145v6.449a2.3,2.3,0,0,1-.874,2.066l53.023-32.876a2.309,2.309,0,0,0,.874-2.066v-6.46a6.926,6.926,0,0,0-.869-3.151Z" transform="translate(-68.596 -254.119)" fill="#ff7609"/>
          <path id="Tracciato_42" data-name="Tracciato 42" d="M104,309.553a6.872,6.872,0,0,1,.874,3.145v6.449a2.3,2.3,0,0,1-.874,2.066l53.023-32.876a2.309,2.309,0,0,0,.874-2.066v-6.46a6.926,6.926,0,0,0-.869-3.151Z" transform="translate(-68.596 -254.119)" fill="#fff" opacity="0.45"/>
        </g>
        <path id="Tracciato_43" data-name="Tracciato 43" d="M65.613,314.375v13.841l-2.293,1.352L33.991,311.4l2.272-1.406L33.9,308.521v-1.6l1.515-.932a14.891,14.891,0,0,0-.167-8.673L33.9,296.49v-1.81Z" transform="translate(-27.86 -247.254)" opacity="0.1"/>
        <g id="freepik--book--inject-2-3" data-name="freepik--book--inject-2">
          <path id="Tracciato_44" data-name="Tracciato 44" d="M21.94,262.494l35.177,21.827,53.068-32.876L75.008,230.13Z" transform="translate(-21.94 -217.892)" fill="#ff7609"/>
          <path id="Tracciato_45" data-name="Tracciato 45" d="M21.94,262.494l35.177,21.827,53.068-32.876L75.008,230.13Z" transform="translate(-21.94 -217.892)" opacity="0.5"/>
          <path id="Tracciato_46" data-name="Tracciato 46" d="M58.792,302.217l-34.046-21.26c.813-2.48.752-4.868-.167-8.177l33.833,21.047S59.014,295.435,58.792,302.217Z" transform="translate(-23.247 -237.292)" fill="#fff"/>
          <path id="Tracciato_47" data-name="Tracciato 47" d="M58.433,293.867,24.6,272.82a20.317,20.317,0,0,1,.611,3.074l33.576,20.927a16.061,16.061,0,0,0-.353-2.955Z" transform="translate(-23.257 -237.311)" fill="#ebebeb"/>
          <path id="Tracciato_48" data-name="Tracciato 48" d="M55.566,288.965a7.172,7.172,0,0,1,2.979,5.533v5.953c0,2.039-1.333,2.862-2.979,1.848L22,281.323v-1.6l33.187,20.606c1.01.611,1.783.114,1.783-1.09v-5.484a4.315,4.315,0,0,0-1.788-3.32L22,269.8V268Z" transform="translate(-21.97 -235.118)" fill="#ff7609"/>
          <path id="Tracciato_49" data-name="Tracciato 49" d="M55.566,288.965a7.172,7.172,0,0,1,2.979,5.533v5.953c0,2.039-1.333,2.862-2.979,1.848L22,281.323v-1.6l33.187,20.606c1.01.611,1.783.114,1.783-1.09v-5.484a4.315,4.315,0,0,0-1.788-3.32L22,269.8V268Z" transform="translate(-21.97 -235.118)" opacity="0.4"/>
          <path id="Tracciato_50" data-name="Tracciato 50" d="M22,240.562,75.023,207.68l33.591,20.976a7.161,7.161,0,0,1,2.979,5.533v5.953a2.31,2.31,0,0,1-.874,2.066L57.672,275.085a2.322,2.322,0,0,0,.874-2.066V267.06a7.178,7.178,0,0,0-2.979-5.533Z" transform="translate(-21.97 -207.68)" fill="#ff7609"/>
          <path id="Tracciato_51" data-name="Tracciato 51" d="M22,240.562,75.023,207.68l33.591,20.976a7.161,7.161,0,0,1,2.979,5.533v5.953a2.31,2.31,0,0,1-.874,2.066L57.672,275.085a2.322,2.322,0,0,0,.874-2.066V267.06a7.178,7.178,0,0,0-2.979-5.533Z" transform="translate(-21.97 -207.68)" opacity="0.2"/>
          <path id="Tracciato_52" data-name="Tracciato 52" d="M92.65,283.4a6.925,6.925,0,0,1,.874,3.151v5.958a2.31,2.31,0,0,1-.874,2.066l53.058-32.887a2.31,2.31,0,0,0,.874-2.066v-5.942a6.878,6.878,0,0,0-.874-3.151Z" transform="translate(-56.943 -227.171)" fill="#ff7609"/>
          <path id="Tracciato_53" data-name="Tracciato 53" d="M92.65,283.4a6.925,6.925,0,0,1,.874,3.151v5.958a2.31,2.31,0,0,1-.874,2.066l53.058-32.887a2.31,2.31,0,0,0,.874-2.066v-5.942a6.878,6.878,0,0,0-.874-3.151Z" transform="translate(-56.943 -227.171)" opacity="0.35"/>
        </g>
        <path id="Tracciato_54" data-name="Tracciato 54" d="M157.682,282.522h0v-.256A6.157,6.157,0,0,0,157.54,281h0a7.749,7.749,0,0,0-3.07-4.693l-1.141-.692a3.568,3.568,0,0,0,.2-1.188v-6.471a7.213,7.213,0,0,0-2.974-5.538l-2.873-1.739a3.589,3.589,0,0,0,.136-1.014v-6.34a3.327,3.327,0,0,0-.066-.5,5.121,5.121,0,0,0-.157-.7h0c-.035-.125-.076-.256-.116-.382h0a8.2,8.2,0,0,0-.5-1.15h0L105.4,276.346v11.175L95.13,293.828l.793.5,4.888-3.069,4.545,2.835v11.671l-3.939,2.459h0l-1.8,1.09-.035.027a1.97,1.97,0,0,1-2.106-.224l-1.555-.948-.7.409,2.525,1.592a2.091,2.091,0,0,0,2.232,0l2.288-1.423,3.1,1.93v12.647l51.381-31.83a1.61,1.61,0,0,0,.394-.343,2.967,2.967,0,0,0,.545-1.881Z" transform="translate(-58.171 -227.203)" opacity="0.1"/>
      </g>
    </g>
    <g id="freepik--Apple--inject-2" transform="translate(30.017 128.676)">
      <g id="freepik--apple--inject-2-2" data-name="freepik--apple--inject-2">
        <path id="Tracciato_55" data-name="Tracciato 55" d="M51.959,269.409c4.651,3.887,13.569,4.77,19.921,1.962s7.711-8.231,3.03-12.124-13.6-4.775-19.926-1.968S47.308,265.517,51.959,269.409Z" transform="translate(-46.806 -229.465)" opacity="0.1"/>
        <path id="Tracciato_56" data-name="Tracciato 56" d="M55.875,222.045c-2.641.164-7.236.545-10.1,6.9-3.262,7.245,0,16.261,5,20.061,6.287,4.775,16.159,5.064,21.956-.643,6.418-6.318,6.893-18.283,2.525-23.522s-11.11-3.75-12.882-2.944C59.723,223.1,57.935,221.914,55.875,222.045Z" transform="translate(-44.464 -213.739)" fill="#ff7609"/>
        <path id="Tracciato_57" data-name="Tracciato 57" d="M54.743,227.5c-1.7-.158-4.176,1.472-5.474,3.979-1.606,3.113-1.813,7.506-1.308,10.7,1.01,6.449,6.782,9.812,7.337,9.267s-3.631-4.764-1.323-11.175C56.318,233.765,57.535,227.768,54.743,227.5Z" transform="translate(-46.075 -216.661)" fill="#fff" opacity="0.3"/>
        <path id="Tracciato_58" data-name="Tracciato 58" d="M54.518,229.259c-1.732.632-3.742,3.631-4.267,5.751s-.268,3.56,0,3.816c.5.447,4-3.271,5.151-4.944C57.043,231.51,57.331,228.234,54.518,229.259Z" transform="translate(-47.178 -217.377)" fill="#fff" opacity="0.2"/>
        <path id="Tracciato_59" data-name="Tracciato 59" d="M70.233,231.722c-.924-.8-1.8-1.2-2.257,0s2.02,3.091,4.742,2.224,3.676-2.786,3.621-3.756c0,0-1.237,2.11-3.07,2.35a4.347,4.347,0,0,1-3.035-.818Z" transform="translate(-56.076 -217.889)" fill="#ff7609"/>
        <path id="Tracciato_60" data-name="Tracciato 60" d="M70.233,231.722c-.924-.8-1.8-1.2-2.257,0s2.02,3.091,4.742,2.224,3.676-2.786,3.621-3.756c0,0-1.237,2.11-3.07,2.35a4.347,4.347,0,0,1-3.035-.818Z" transform="translate(-56.076 -217.889)" opacity="0.1"/>
        <path id="Tracciato_61" data-name="Tracciato 61" d="M66.686,222.912a29.618,29.618,0,0,0-1.222-8.068c-1.237-3.783-3.424-6.432-4.04-6.721a6.794,6.794,0,0,0-2.995-.485c-1.4,0-3.075,1.036-2.616,1.635s2.479,1.019,4.934,3.494,4.8,7.283,4.8,10.161A1.023,1.023,0,0,0,66.686,222.912Z" transform="translate(-50.044 -207.624)" fill="#37474f"/>
        <path id="Tracciato_62" data-name="Tracciato 62" d="M61.448,208.088a1.057,1.057,0,0,0-.136-.06h0a7.429,7.429,0,0,0-2.737-.376,3.532,3.532,0,0,0-2.58,1.09c-.1.218.212.512,1.469.7a7.18,7.18,0,0,0,3.686-.371C61.68,208.862,61.892,208.339,61.448,208.088Z" transform="translate(-50.164 -207.632)" fill="#455a64"/>
        <path id="Tracciato_63" data-name="Tracciato 63" d="M67.187,220.652c-1.106-3.412-4.454-6.253-6.747-7.512h0a14.294,14.294,0,0,1,2.646,2.1c2.454,2.475,4.8,7.283,4.8,10.161a1.022,1.022,0,0,0,1.126,0s0-1.036-.146-2.529C68.8,224.282,68.207,223.8,67.187,220.652Z" transform="translate(-52.373 -210.133)" opacity="0.1"/>
        <path id="Tracciato_64" data-name="Tracciato 64" d="M75.838,217.25a6.371,6.371,0,0,0,6.115-2.6c1.929-2.726.672-6.313.672-6.313a5.862,5.862,0,0,0-5.388,1.826C75.52,212.044,75.282,215.658,75.838,217.25Z" transform="translate(-59.862 -207.903)" fill="#ff7609"/>
        <path id="Tracciato_65" data-name="Tracciato 65" d="M75.838,217.25a6.371,6.371,0,0,0,6.115-2.6c1.929-2.726.672-6.313.672-6.313a5.862,5.862,0,0,0-5.388,1.826C75.52,212.044,75.282,215.658,75.838,217.25Z" transform="translate(-59.862 -207.903)" opacity="0.3"/>
        <path id="Tracciato_66" data-name="Tracciato 66" d="M82.627,208.357a5.862,5.862,0,0,0-5.388,1.826c-1.717,1.87-1.949,5.484-1.4,7.087C77.41,211.977,82.627,208.357,82.627,208.357Z" transform="translate(-59.865 -207.912)" opacity="0.1"/>
        <path id="Tracciato_67" data-name="Tracciato 67" d="M80.939,209.35A5.8,5.8,0,0,0,76.45,214.9a12.056,12.056,0,0,1,1.732-3.271A9.466,9.466,0,0,1,80.939,209.35Z" transform="translate(-60.298 -208.409)" fill="#ff7609"/>
      </g>
    </g>
    <g id="freepik--Schedule--inject-2" transform="translate(67.853 34.065)">
      <g id="freepik--schedule--inject-2-2" data-name="freepik--schedule--inject-2">
        <path id="Tracciato_68" data-name="Tracciato 68" d="M240.4,39.433,122.061,113.193V213.769l.015,18.076-1.045-.649-1.641-1.025V111.531L237.731,37.77l2.035,1.265Z" transform="translate(-119.39 -35.75)" fill="#e6e6e6"/>
        <path id="Tracciato_69" data-name="Tracciato 69" d="M243.021,40.82V141.4L128.679,212.659l-2.666,1.668-.662.409-.656.4-.015.016V114.581Z" transform="translate(-122.009 -37.138)" fill="#f0f0f0"/>
        <path id="Tracciato_70" data-name="Tracciato 70" d="M237.731,37.77l2.671,1.663L122.061,113.193l-2.671-1.668Z" transform="translate(-119.39 -35.75)" fill="#f0f0f0"/>
        <path id="Tracciato_71" data-name="Tracciato 71" d="M242.971,39.419l-.959.6L123.67,113.774,123.3,114V232.169l-.656-.409V113.6l.389-.24L241.375,39.6l.944-.589Z" transform="translate(-120.999 -36.314)" fill="#ff7609"/>
        <path id="Tracciato_72" data-name="Tracciato 72" d="M242.971,39.419l-.959.6L123.67,113.774,123.3,114V232.169l-.656-.409V113.6l.389-.24L241.375,39.6l.944-.589Z" transform="translate(-120.999 -36.314)" opacity="0.1"/>
        <path id="Tracciato_73" data-name="Tracciato 73" d="M242.64,40.373,124.314,114.128h0l-.374.229V232.524l.389.24L243.61,158.627V39.79Z" transform="translate(-121.642 -36.669)" fill="#ff7609"/>
        <path id="Tracciato_74" data-name="Tracciato 74" d="M242.64,40.373,124.314,114.128h0l-.374.229V232.524l.389.24L243.61,158.627V39.79Z" transform="translate(-121.642 -36.669)" opacity="0.05"/>
        <path id="Tracciato_75" data-name="Tracciato 75" d="M242.315,39.02l.656.4L123.3,114.013l-.656-.409Z" transform="translate(-120.999 -36.319)" fill="#ff7609"/>
        <path id="Tracciato_76" data-name="Tracciato 76" d="M242.315,39.02l.656.4L123.3,114.013l-.656-.409Z" transform="translate(-120.999 -36.319)" fill="#fff" opacity="0.4"/>
        <path id="Tracciato_77" data-name="Tracciato 77" d="M245.041,40.613,244,41.262l-.959.6-32.6,20.317L125.366,115.2V233.364l-.656-.409V114.794L243.036,41.055l.959-.6.394-.245Z" transform="translate(-122.024 -36.86)" fill="#ff7609"/>
        <path id="Tracciato_78" data-name="Tracciato 78" d="M245.041,40.613,244,41.262l-.959.6-32.6,20.317L125.366,115.2V233.364l-.656-.409V114.794L243.036,41.055l.959-.6.394-.245Z" transform="translate(-122.024 -36.86)" opacity="0.1"/>
        <path id="Tracciato_79" data-name="Tracciato 79" d="M244.634,41.621l-.975.605L211.079,62.538,126,115.567V233.723l.662.414,2.6-1.7,116.418-72.6V41Z" transform="translate(-122.662 -37.219)" fill="#ff7609"/>
        <path id="Tracciato_80" data-name="Tracciato 80" d="M244.39,40.21l.651.4L125.366,115.2l-.656-.4Z" transform="translate(-122.024 -36.86)" fill="#ff7609"/>
        <path id="Tracciato_81" data-name="Tracciato 81" d="M244.39,40.21l.651.4L125.366,115.2l-.656-.4Z" transform="translate(-122.024 -36.86)" fill="#fff" opacity="0.4"/>
        <path id="Tracciato_82" data-name="Tracciato 82" d="M248.333,44.023l-2,1.248-1.045.654-.959.589L129.986,117.778V236.418l-2.666-1.663V116.115L244.328,43.189l.959-.6.374-.229.672.42Z" transform="translate(-123.316 -37.838)" fill="#e6e6e6"/>
        <path id="Tracciato_83" data-name="Tracciato 83" d="M245.661,42.35l2.671,1.663L129.991,117.773l-2.671-1.668Z" transform="translate(-123.316 -37.833)" fill="#f0f0f0"/>
        <path id="Tracciato_84" data-name="Tracciato 84" d="M132.6,119.161V237.8l118.346-73.755V45.4Z" transform="translate(-125.929 -39.221)" fill="#fafafa"/>
        <g id="freepik--Notebook--inject-2" transform="translate(2.272)">
          <path id="Tracciato_85" data-name="Tracciato 85" d="M155.279,173.668c.768-.48,1.394-.093,1.394.872a3.391,3.391,0,0,1-1.394,2.606c-.773.48-1.4.093-1.4-.867A3.39,3.39,0,0,1,155.279,173.668Z" transform="translate(-138.736 -97.474)" fill="#37474f"/>
          <path id="Tracciato_86" data-name="Tracciato 86" d="M143.148,151.111c-1.515-.943-2.974-1.09-4.1-.382s-1.742,2.131-1.742,4.023a10.18,10.18,0,0,0,.242,2.137l.929-.583a8.682,8.682,0,0,1-.141-1.554,3.441,3.441,0,0,1,1.227-3.064c.793-.5,1.879-.354,3.065.387a11.669,11.669,0,0,1,4.807,8.989,4.98,4.98,0,0,1-.389,2.077,2.351,2.351,0,0,1-.838.987.393.393,0,0,1-.081.044,3.44,3.44,0,0,0-.439,1.314,2.95,2.95,0,0,0,1.035-.4,3.51,3.51,0,0,0,1.449-1.973,6.529,6.529,0,0,0,.293-2.05C148.47,157.407,146.087,152.937,143.148,151.111Z" transform="translate(-130.533 -86.93)" fill="#ff7609"/>
          <path id="Tracciato_87" data-name="Tracciato 87" d="M168.7,165.919c.768-.48,1.394-.087,1.394.872A3.414,3.414,0,0,1,168.7,169.4c-.773.48-1.4.087-1.4-.872a3.4,3.4,0,0,1,1.4-2.611Z" transform="translate(-145.379 -93.949)" fill="#37474f"/>
          <path id="Tracciato_88" data-name="Tracciato 88" d="M156.568,143.361c-1.515-.943-2.974-1.09-4.1-.382s-1.742,2.131-1.742,4.023a10.18,10.18,0,0,0,.242,2.137l.929-.583A8.641,8.641,0,0,1,151.76,147a3.441,3.441,0,0,1,1.227-3.064c.793-.5,1.879-.354,3.065.387a11.671,11.671,0,0,1,4.807,8.995,4.922,4.922,0,0,1-.389,2.077,2.371,2.371,0,0,1-.838.981l-.081.049a3.388,3.388,0,0,0-.439,1.308,2.943,2.943,0,0,0,1.01-.392,3.544,3.544,0,0,0,1.449-1.979,6.668,6.668,0,0,0,.293-2.044A12.848,12.848,0,0,0,156.568,143.361Z" transform="translate(-137.176 -83.405)" fill="#ff7609"/>
          <path id="Tracciato_89" data-name="Tracciato 89" d="M141.864,181.408c.773-.48,1.394-.093,1.394.872a3.374,3.374,0,0,1-1.394,2.606c-.768.48-1.394.093-1.394-.867A3.4,3.4,0,0,1,141.864,181.408Z" transform="translate(-132.097 -100.994)" fill="#37474f"/>
          <path id="Tracciato_90" data-name="Tracciato 90" d="M129.728,158.851c-1.515-.943-2.974-1.09-4.1-.382s-1.742,2.126-1.742,4.023a10.257,10.257,0,0,0,.242,2.137l.934-.583a8.747,8.747,0,0,1-.146-1.554,3.454,3.454,0,0,1,1.227-3.064c.788-.5,1.879-.354,3.065.387a11.659,11.659,0,0,1,4.812,8.989,4.98,4.98,0,0,1-.394,2.077,2.293,2.293,0,0,1-.833.981l-.081.049a3.375,3.375,0,0,0-.444,1.308,2.886,2.886,0,0,0,1.04-.392,3.5,3.5,0,0,0,1.444-1.973,6.551,6.551,0,0,0,.3-2.05C135.055,165.147,132.667,160.677,129.728,158.851Z" transform="translate(-123.89 -90.451)" fill="#ff7609"/>
          <path id="Tracciato_91" data-name="Tracciato 91" d="M182.119,158.176c.768-.485,1.394-.093,1.394.867a3.4,3.4,0,0,1-1.394,2.611c-.773.48-1.4.087-1.4-.872a3.384,3.384,0,0,1,1.4-2.606Z" transform="translate(-152.022 -90.425)" fill="#37474f"/>
          <path id="Tracciato_92" data-name="Tracciato 92" d="M169.988,135.618c-1.515-.949-2.974-1.09-4.1-.387s-1.737,2.131-1.737,4.023a10.18,10.18,0,0,0,.242,2.137l.929-.583a8.642,8.642,0,0,1-.141-1.554A3.434,3.434,0,0,1,166.4,136.2a2.9,2.9,0,0,1,3.07.382,11.671,11.671,0,0,1,4.807,8.995,5,5,0,0,1-.389,2.077,2.371,2.371,0,0,1-.838.981l-.081.049a3.439,3.439,0,0,0-.439,1.308,2.939,2.939,0,0,0,1.035-.393,3.544,3.544,0,0,0,1.449-1.979,6.669,6.669,0,0,0,.293-2.044C175.31,141.909,172.921,137.445,169.988,135.618Z" transform="translate(-143.82 -79.882)" fill="#ff7609"/>
          <path id="Tracciato_93" data-name="Tracciato 93" d="M195.534,150.428c.773-.48,1.4-.093,1.4.867a3.386,3.386,0,0,1-1.4,2.622c-.768.48-1.394.093-1.394-.872a3.392,3.392,0,0,1,1.394-2.617Z" transform="translate(-158.665 -86.902)" fill="#37474f"/>
          <path id="Tracciato_94" data-name="Tracciato 94" d="M183.408,127.869c-1.515-.949-2.974-1.09-4.1-.382s-1.737,2.126-1.737,4.023a10.168,10.168,0,0,0,.242,2.131l.929-.578a8.728,8.728,0,0,1-.141-1.554,3.446,3.446,0,0,1,1.222-3.064,2.9,2.9,0,0,1,3.07.387,11.66,11.66,0,0,1,4.807,8.989,4.98,4.98,0,0,1-.389,2.077,2.371,2.371,0,0,1-.838.981l-.081.049a3.439,3.439,0,0,0-.439,1.308,2.838,2.838,0,0,0,1.035-.393,3.522,3.522,0,0,0,1.449-1.979,6.67,6.67,0,0,0,.293-2.044C188.73,134.165,186.341,129.7,183.408,127.869Z" transform="translate(-150.463 -76.358)" fill="#ff7609"/>
          <path id="Tracciato_95" data-name="Tracciato 95" d="M208.954,142.678c.773-.48,1.4-.093,1.4.867a3.385,3.385,0,0,1-1.4,2.611c-.768.48-1.394.093-1.394-.867A3.391,3.391,0,0,1,208.954,142.678Z" transform="translate(-165.309 -83.377)" fill="#37474f"/>
          <path id="Tracciato_96" data-name="Tracciato 96" d="M196.832,120.119c-1.515-.949-2.974-1.09-4.1-.382S191,121.858,191,123.761a10.257,10.257,0,0,0,.242,2.137l.929-.583a8.731,8.731,0,0,1-.141-1.554,3.445,3.445,0,0,1,1.222-3.064,2.9,2.9,0,0,1,3.07.387,11.661,11.661,0,0,1,4.807,8.989,4.9,4.9,0,0,1-.394,2.077,2.325,2.325,0,0,1-.833.981.641.641,0,0,1-.081.049,3.439,3.439,0,0,0-.439,1.308,2.841,2.841,0,0,0,1.01-.392,3.532,3.532,0,0,0,1.449-1.973,6.7,6.7,0,0,0,.293-2.05A12.872,12.872,0,0,0,196.832,120.119Z" transform="translate(-157.111 -72.832)" fill="#ff7609"/>
          <path id="Tracciato_97" data-name="Tracciato 97" d="M222.374,134.928c.773-.48,1.4-.093,1.4.872a3.384,3.384,0,0,1-1.4,2.606c-.768.48-1.394.093-1.394-.867A3.4,3.4,0,0,1,222.374,134.928Z" transform="translate(-171.952 -79.852)" fill="#37474f"/>
          <path id="Tracciato_98" data-name="Tracciato 98" d="M210.273,112.371c-1.515-.943-2.974-1.09-4.1-.382s-1.742,2.126-1.742,4.023a9.9,9.9,0,0,0,.247,2.137l.929-.583a8.7,8.7,0,0,1-.146-1.554,3.453,3.453,0,0,1,1.227-3.064c.788-.5,1.879-.354,3.07.387a11.669,11.669,0,0,1,4.807,8.989,4.88,4.88,0,0,1-.394,2.077,2.379,2.379,0,0,1-.833.987l-.081.044a3.44,3.44,0,0,0-.439,1.308,2.742,2.742,0,0,0,1.035-.392,3.51,3.51,0,0,0,1.449-1.973,6.7,6.7,0,0,0,.293-2.05C215.58,118.667,213.191,114.2,210.273,112.371Z" transform="translate(-163.759 -69.309)" fill="#ff7609"/>
          <path id="Tracciato_99" data-name="Tracciato 99" d="M235.794,127.179c.773-.48,1.394-.087,1.394.872a3.374,3.374,0,0,1-1.394,2.606c-.768.485-1.394.093-1.394-.867A3.414,3.414,0,0,1,235.794,127.179Z" transform="translate(-178.595 -76.327)" fill="#37474f"/>
          <path id="Tracciato_100" data-name="Tracciato 100" d="M223.663,104.621c-1.515-.943-2.974-1.09-4.1-.382s-1.742,2.131-1.742,4.023a9.865,9.865,0,0,0,.247,2.137l.929-.583a8.65,8.65,0,0,1-.146-1.554,3.454,3.454,0,0,1,1.227-3.064c.788-.5,1.879-.354,3.07.387a11.671,11.671,0,0,1,4.807,8.995,4.875,4.875,0,0,1-.394,2.071,2.311,2.311,0,0,1-.833.987l-.081.049a3.387,3.387,0,0,0-.439,1.308,2.981,2.981,0,0,0,1.01-.392,3.534,3.534,0,0,0,1.444-1.979,6.516,6.516,0,0,0,.3-2.044A12.863,12.863,0,0,0,223.663,104.621Z" transform="translate(-170.387 -65.783)" fill="#ff7609"/>
          <path id="Tracciato_101" data-name="Tracciato 101" d="M249.214,119.436c.773-.485,1.394-.093,1.394.867a3.386,3.386,0,0,1-1.394,2.611c-.768.48-1.394.087-1.394-.872a3.391,3.391,0,0,1,1.394-2.606Z" transform="translate(-185.238 -72.803)" fill="#37474f"/>
          <path id="Tracciato_102" data-name="Tracciato 102" d="M237.083,96.871c-1.515-.943-2.974-1.09-4.1-.382s-1.742,2.131-1.742,4.023a9.866,9.866,0,0,0,.247,2.137l.929-.583a8.656,8.656,0,0,1-.146-1.554,3.436,3.436,0,0,1,1.227-3.058,2.9,2.9,0,0,1,3.07.382,11.671,11.671,0,0,1,4.807,8.995,4.915,4.915,0,0,1-.394,2.077,2.261,2.261,0,0,1-.833.981l-.081.049a3.284,3.284,0,0,0-.439,1.308,2.978,2.978,0,0,0,1.035-.393,3.512,3.512,0,0,0,1.444-1.979,6.514,6.514,0,0,0,.3-2.044C242.405,103.167,240.017,98.7,237.083,96.871Z" transform="translate(-177.031 -62.258)" fill="#ff7609"/>
          <path id="Tracciato_103" data-name="Tracciato 103" d="M262.634,111.688c.773-.48,1.394-.093,1.394.867a3.386,3.386,0,0,1-1.394,2.611c-.768.48-1.394.087-1.394-.872A3.391,3.391,0,0,1,262.634,111.688Z" transform="translate(-191.881 -69.28)" fill="#37474f"/>
          <path id="Tracciato_104" data-name="Tracciato 104" d="M250.5,89.129c-1.515-.949-2.974-1.09-4.1-.382s-1.742,2.126-1.742,4.023a9.853,9.853,0,0,0,.247,2.131l.934-.578a8.747,8.747,0,0,1-.146-1.554,3.447,3.447,0,0,1,1.227-3.064,2.9,2.9,0,0,1,3.07.382,11.671,11.671,0,0,1,4.807,8.995,4.9,4.9,0,0,1-.394,2.077,2.325,2.325,0,0,1-.833.981l-.081.049a3.284,3.284,0,0,0-.439,1.308,2.978,2.978,0,0,0,1.035-.392,3.518,3.518,0,0,0,1.444-1.979,6.515,6.515,0,0,0,.3-2.044A13.032,13.032,0,0,0,250.5,89.129Z" transform="translate(-183.674 -58.736)" fill="#ff7609"/>
          <path id="Tracciato_105" data-name="Tracciato 105" d="M276.054,103.938c.773-.48,1.394-.093,1.394.867a3.38,3.38,0,0,1-1.394,2.611c-.768.48-1.394.093-1.394-.867A3.391,3.391,0,0,1,276.054,103.938Z" transform="translate(-198.525 -65.755)" fill="#37474f"/>
          <path id="Tracciato_106" data-name="Tracciato 106" d="M263.923,81.379c-1.515-.949-2.974-1.09-4.1-.382s-1.742,2.126-1.742,4.023a9.968,9.968,0,0,0,.247,2.137l.929-.583a8.741,8.741,0,0,1-.146-1.554,3.447,3.447,0,0,1,1.227-3.064,2.893,2.893,0,0,1,3.065.387,11.651,11.651,0,0,1,4.812,8.989,4.9,4.9,0,0,1-.394,2.077,2.325,2.325,0,0,1-.833.981l-.081.049a3.284,3.284,0,0,0-.439,1.308,2.886,2.886,0,0,0,1.035-.393,3.522,3.522,0,0,0,1.444-1.973,6.552,6.552,0,0,0,.3-2.05C269.245,87.676,266.856,83.205,263.923,81.379Z" transform="translate(-190.317 -55.211)" fill="#ff7609"/>
          <path id="Tracciato_107" data-name="Tracciato 107" d="M289.474,96.188c.773-.48,1.394-.093,1.394.872a3.374,3.374,0,0,1-1.394,2.606c-.768.48-1.394.093-1.394-.867a3.4,3.4,0,0,1,1.394-2.611Z" transform="translate(-205.168 -62.23)" fill="#37474f"/>
          <path id="Tracciato_108" data-name="Tracciato 108" d="M277.338,73.631c-1.515-.943-2.974-1.09-4.1-.382s-1.742,2.126-1.742,4.023a10.253,10.253,0,0,0,.242,2.137l.934-.583a8.747,8.747,0,0,1-.146-1.554,3.454,3.454,0,0,1,1.227-3.064c.788-.5,1.879-.354,3.065.387a11.659,11.659,0,0,1,4.812,8.989,4.979,4.979,0,0,1-.394,2.077,2.293,2.293,0,0,1-.833.981l-.081.049A3.375,3.375,0,0,0,279.883,88a2.886,2.886,0,0,0,1.04-.392,3.5,3.5,0,0,0,1.434-1.973,6.55,6.55,0,0,0,.3-2.05C282.665,79.927,280.277,75.457,277.338,73.631Z" transform="translate(-196.96 -51.687)" fill="#ff7609"/>
          <path id="Tracciato_109" data-name="Tracciato 109" d="M302.879,88.446c.768-.485,1.394-.093,1.394.867a3.4,3.4,0,0,1-1.394,2.611c-.773.48-1.4.087-1.4-.872A3.384,3.384,0,0,1,302.879,88.446Z" transform="translate(-211.801 -58.707)" fill="#37474f"/>
          <path id="Tracciato_110" data-name="Tracciato 110" d="M290.748,65.889c-1.515-.949-2.974-1.09-4.1-.382s-1.737,2.126-1.737,4.023a10.17,10.17,0,0,0,.242,2.131l.929-.583a8.628,8.628,0,0,1-.141-1.548,3.428,3.428,0,0,1,1.227-3.064,2.889,2.889,0,0,1,3.065.382,11.671,11.671,0,0,1,4.807,8.995,4.981,4.981,0,0,1-.389,2.077,2.372,2.372,0,0,1-.838.981l-.081.049a3.438,3.438,0,0,0-.439,1.308,2.939,2.939,0,0,0,1.035-.392,3.543,3.543,0,0,0,1.449-1.979,6.669,6.669,0,0,0,.293-2.044C296.065,72.186,293.681,67.715,290.748,65.889Z" transform="translate(-203.599 -48.164)" fill="#ff7609"/>
          <path id="Tracciato_111" data-name="Tracciato 111" d="M316.294,80.7c.773-.48,1.4-.093,1.4.867a3.385,3.385,0,0,1-1.4,2.611c-.768.48-1.394.093-1.394-.872A3.391,3.391,0,0,1,316.294,80.7Z" transform="translate(-218.444 -55.184)" fill="#37474f"/>
          <path id="Tracciato_112" data-name="Tracciato 112" d="M304.168,58.139c-1.515-.949-2.974-1.09-4.1-.382s-1.737,2.126-1.737,4.023a10.166,10.166,0,0,0,.242,2.131l.929-.578a8.734,8.734,0,0,1-.141-1.554,3.445,3.445,0,0,1,1.222-3.064,2.9,2.9,0,0,1,3.07.387,11.661,11.661,0,0,1,4.807,8.989,4.981,4.981,0,0,1-.389,2.077,2.308,2.308,0,0,1-.818.981.643.643,0,0,1-.081.049,3.439,3.439,0,0,0-.439,1.308,2.838,2.838,0,0,0,1.035-.392,3.548,3.548,0,0,0,1.449-1.973,6.7,6.7,0,0,0,.293-2.05C309.49,64.436,307.1,59.965,304.168,58.139Z" transform="translate(-210.242 -44.639)" fill="#ff7609"/>
          <path id="Tracciato_113" data-name="Tracciato 113" d="M329.714,72.948c.773-.48,1.4-.093,1.4.867a3.385,3.385,0,0,1-1.4,2.611c-.768.48-1.394.093-1.394-.867a3.4,3.4,0,0,1,1.394-2.611Z" transform="translate(-225.087 -51.658)" fill="#37474f"/>
          <path id="Tracciato_114" data-name="Tracciato 114" d="M317.588,50.391c-1.515-.943-2.974-1.09-4.1-.382s-1.737,2.126-1.737,4.023a10.255,10.255,0,0,0,.242,2.137l.929-.583a8.725,8.725,0,0,1-.141-1.554A3.452,3.452,0,0,1,314,50.969c.788-.5,1.879-.354,3.07.387a11.661,11.661,0,0,1,4.807,8.989,4.9,4.9,0,0,1-.394,2.077,2.325,2.325,0,0,1-.833.981.322.322,0,0,1-.081.049,3.44,3.44,0,0,0-.439,1.308,2.842,2.842,0,0,0,1.01-.392,3.532,3.532,0,0,0,1.449-1.973,6.7,6.7,0,0,0,.293-2.05A12.852,12.852,0,0,0,317.588,50.391Z" transform="translate(-216.885 -41.115)" fill="#ff7609"/>
          <path id="Tracciato_115" data-name="Tracciato 115" d="M343.134,65.2c.773-.48,1.4-.093,1.4.872a3.384,3.384,0,0,1-1.4,2.606c-.768.48-1.394.093-1.394-.867a3.4,3.4,0,0,1,1.394-2.611Z" transform="translate(-231.731 -48.133)" fill="#37474f"/>
          <path id="Tracciato_116" data-name="Tracciato 116" d="M331,42.641c-1.515-.943-2.974-1.09-4.1-.382s-1.742,2.126-1.742,4.023a9.866,9.866,0,0,0,.247,2.137l.929-.583a8.685,8.685,0,0,1-.141-1.554,3.452,3.452,0,0,1,1.222-3.064c.788-.5,1.878-.354,3.07.387a11.669,11.669,0,0,1,4.807,8.989,4.88,4.88,0,0,1-.394,2.077,2.379,2.379,0,0,1-.833.987l-.081.044a3.439,3.439,0,0,0-.439,1.308,2.742,2.742,0,0,0,1.035-.392,3.51,3.51,0,0,0,1.449-1.973,6.68,6.68,0,0,0,.293-2.05C336.325,48.937,333.936,44.467,331,42.641Z" transform="translate(-223.523 -37.59)" fill="#ff7609"/>
          <path id="Tracciato_117" data-name="Tracciato 117" d="M356.554,57.449c.773-.48,1.394-.087,1.394.872a3.374,3.374,0,0,1-1.394,2.606c-.768.485-1.394.093-1.394-.867a3.414,3.414,0,0,1,1.394-2.611Z" transform="translate(-238.374 -44.609)" fill="#37474f"/>
          <path id="Tracciato_118" data-name="Tracciato 118" d="M344.423,34.891c-1.515-.943-2.974-1.09-4.1-.382s-1.742,2.131-1.742,4.023a9.864,9.864,0,0,0,.247,2.137l.929-.583a8.648,8.648,0,0,1-.146-1.554,3.454,3.454,0,0,1,1.227-3.064c.788-.5,1.879-.354,3.07.387a11.671,11.671,0,0,1,4.807,8.995,4.874,4.874,0,0,1-.394,2.071,2.278,2.278,0,0,1-.833.987l-.081.049a3.386,3.386,0,0,0-.439,1.308A2.939,2.939,0,0,0,348,48.873a3.512,3.512,0,0,0,1.444-1.979,6.517,6.517,0,0,0,.3-2.044C349.745,41.187,347.377,36.722,344.423,34.891Z" transform="translate(-230.166 -34.065)" fill="#ff7609"/>
          <path id="Tracciato_119" data-name="Tracciato 119" d="M238.156,34.891c-1.515-.943-2.974-1.09-4.1-.382s-1.742,2.131-1.742,4.023a9.986,9.986,0,0,0,.116,1.374,7.886,7.886,0,0,0-1.05-.79c-1.515-.943-2.974-1.09-4.1-.382s-1.742,2.126-1.742,4.023a9.827,9.827,0,0,0,.116,1.368,8.337,8.337,0,0,0-1.05-.785c-1.515-.949-2.974-1.09-4.1-.382s-1.737,2.126-1.737,4.023a9.808,9.808,0,0,0,.111,1.368,8.337,8.337,0,0,0-1.05-.785c-1.515-.949-2.974-1.09-4.1-.382s-1.737,2.126-1.737,4.023a9.872,9.872,0,0,0,.111,1.368,7.842,7.842,0,0,0-1.05-.785c-1.515-.949-2.974-1.09-4.1-.382s-1.737,2.126-1.737,4.023a9.72,9.72,0,0,0,.111,1.357,8.239,8.239,0,0,0-1.045-.78c-1.515-.943-2.974-1.09-4.1-.382s-1.742,2.126-1.742,4.023a9.827,9.827,0,0,0,.116,1.368,8.336,8.336,0,0,0-1.05-.785c-1.515-.949-2.979-1.09-4.1-.382s-1.742,2.126-1.742,4.023a9.827,9.827,0,0,0,.116,1.368,7.842,7.842,0,0,0-1.05-.785c-1.515-.949-2.974-1.09-4.1-.382s-1.742,2.126-1.742,4.023A9.893,9.893,0,0,0,185,69.468a8.391,8.391,0,0,0-1.05-.79c-1.515-.943-2.974-1.09-4.1-.382s-1.742,2.131-1.742,4.023a9.9,9.9,0,0,0,.116,1.374,7.887,7.887,0,0,0-1.05-.79c-1.515-.943-2.974-1.09-4.1-.382s-1.742,2.131-1.742,4.023a9.824,9.824,0,0,0,.116,1.368,8.34,8.34,0,0,0-1.05-.785c-1.515-.943-2.974-1.09-4.1-.382s-1.742,2.126-1.742,4.023a9.831,9.831,0,0,0,.116,1.368,8.337,8.337,0,0,0-1.05-.785c-1.515-.949-2.974-1.09-4.1-.382s-1.732,2.121-1.732,4.023a9.827,9.827,0,0,0,.116,1.368,8.336,8.336,0,0,0-1.05-.785c-1.515-.949-2.974-1.09-4.1-.382s-1.737,2.126-1.737,4.023a9.879,9.879,0,0,0,.111,1.368,7.841,7.841,0,0,0-1.05-.785c-1.515-.949-2.974-1.09-4.1-.387s-1.737,2.131-1.737,4.023a9.882,9.882,0,0,0,.111,1.374,7.887,7.887,0,0,0-1.05-.79c-1.515-.943-2.974-1.09-4.1-.382s-1.742,2.131-1.742,4.023a9.245,9.245,0,0,0,.116,1.374,8.267,8.267,0,0,0-1.055-.79c-1.515-.943-2.974-1.09-4.1-.382s-1.742,2.131-1.742,4.023a8.991,8.991,0,0,0,.106,1.357,8.238,8.238,0,0,0-1.045-.78c-1.515-.943-2.974-1.09-4.1-.382s-1.742,2.126-1.742,4.023a10.256,10.256,0,0,0,.242,2.137l.934-.583a8.747,8.747,0,0,1-.146-1.554,3.454,3.454,0,0,1,1.227-3.064c.788-.5,1.879-.354,3.065.387a11.659,11.659,0,0,1,4.812,8.989,4.98,4.98,0,0,1-.394,2.077,2.293,2.293,0,0,1-.833.981l-.081.049a3.374,3.374,0,0,0-.444,1.308,2.886,2.886,0,0,0,1.04-.392,3.5,3.5,0,0,0,1.444-1.973,6.549,6.549,0,0,0,.3-2.05,13.356,13.356,0,0,0-3.732-8.657l.5-.322a8.685,8.685,0,0,1-.141-1.554,3.441,3.441,0,0,1,1.227-3.064c.793-.5,1.879-.354,3.065.387a11.669,11.669,0,0,1,4.807,8.989,4.98,4.98,0,0,1-.389,2.077,2.351,2.351,0,0,1-.838.987.393.393,0,0,1-.081.044,3.44,3.44,0,0,0-.439,1.314,2.951,2.951,0,0,0,1.035-.4,3.51,3.51,0,0,0,1.449-1.973,6.528,6.528,0,0,0,.293-2.05,13.356,13.356,0,0,0-3.732-8.657l.5-.327a8.643,8.643,0,0,1-.141-1.554A3.441,3.441,0,0,1,139.7,94.6c.793-.5,1.879-.354,3.065.387a11.671,11.671,0,0,1,4.807,8.995,4.922,4.922,0,0,1-.389,2.077,2.371,2.371,0,0,1-.838.981l-.081.049a3.388,3.388,0,0,0-.439,1.308,2.943,2.943,0,0,0,1.01-.392,3.544,3.544,0,0,0,1.449-1.979,6.669,6.669,0,0,0,.293-2.044,13.358,13.358,0,0,0-3.732-8.662l.5-.327a8.643,8.643,0,0,1-.141-1.554,3.424,3.424,0,0,1,1.227-3.058,2.889,2.889,0,0,1,3.065.382,11.671,11.671,0,0,1,4.807,8.995,5,5,0,0,1-.389,2.077,2.371,2.371,0,0,1-.838.981l-.081.049a3.439,3.439,0,0,0-.439,1.308,2.939,2.939,0,0,0,1.035-.392,3.543,3.543,0,0,0,1.449-1.979,6.669,6.669,0,0,0,.293-2.044,13.358,13.358,0,0,0-3.732-8.662l.5-.322a8.728,8.728,0,0,1-.141-1.554,3.445,3.445,0,0,1,1.222-3.064,2.9,2.9,0,0,1,3.07.387,11.661,11.661,0,0,1,4.807,8.989,4.98,4.98,0,0,1-.389,2.077,2.371,2.371,0,0,1-.838.981l-.081.049a3.44,3.44,0,0,0-.439,1.308,2.838,2.838,0,0,0,1.035-.392,3.522,3.522,0,0,0,1.449-1.979,6.67,6.67,0,0,0,.293-2.044,13.358,13.358,0,0,0-3.732-8.662l.505-.322a8.731,8.731,0,0,1-.141-1.554,3.445,3.445,0,0,1,1.222-3.064,2.9,2.9,0,0,1,3.07.387,11.661,11.661,0,0,1,4.807,8.989,4.9,4.9,0,0,1-.394,2.077,2.325,2.325,0,0,1-.833.981.641.641,0,0,1-.081.049,3.44,3.44,0,0,0-.439,1.308,2.841,2.841,0,0,0,1.01-.392,3.532,3.532,0,0,0,1.449-1.973,6.7,6.7,0,0,0,.293-2.05,13.356,13.356,0,0,0-3.732-8.657l.5-.327a8.7,8.7,0,0,1-.146-1.554,3.454,3.454,0,0,1,1.227-3.064c.788-.5,1.879-.354,3.07.387a11.669,11.669,0,0,1,4.807,8.989,4.88,4.88,0,0,1-.394,2.077,2.379,2.379,0,0,1-.833.987l-.081.044a3.439,3.439,0,0,0-.439,1.308,2.742,2.742,0,0,0,1.035-.392,3.51,3.51,0,0,0,1.449-1.973,6.7,6.7,0,0,0,.293-2.05,13.356,13.356,0,0,0-3.732-8.657l.5-.327a8.656,8.656,0,0,1-.146-1.554,3.454,3.454,0,0,1,1.227-3.064c.788-.5,1.878-.354,3.07.387a11.671,11.671,0,0,1,4.807,8.995,4.874,4.874,0,0,1-.394,2.071,2.31,2.31,0,0,1-.833.987l-.081.049a3.388,3.388,0,0,0-.439,1.308,2.981,2.981,0,0,0,1.01-.392,3.534,3.534,0,0,0,1.444-1.979,6.515,6.515,0,0,0,.3-2.044A13.358,13.358,0,0,0,178.6,74.2l.5-.327a8.653,8.653,0,0,1-.146-1.554,3.436,3.436,0,0,1,1.227-3.058,2.9,2.9,0,0,1,3.07.382,11.671,11.671,0,0,1,4.807,8.995,4.916,4.916,0,0,1-.394,2.077,2.261,2.261,0,0,1-.833.981l-.081.049a3.284,3.284,0,0,0-.439,1.308,2.977,2.977,0,0,0,1.035-.392,3.512,3.512,0,0,0,1.444-1.979,6.515,6.515,0,0,0,.3-2.044,13.358,13.358,0,0,0-3.732-8.662l.5-.322a8.746,8.746,0,0,1-.146-1.554,3.447,3.447,0,0,1,1.227-3.064,2.9,2.9,0,0,1,3.07.382,11.671,11.671,0,0,1,4.807,8.995,4.9,4.9,0,0,1-.394,2.077,2.325,2.325,0,0,1-.833.981l-.081.049a3.284,3.284,0,0,0-.439,1.308,2.977,2.977,0,0,0,1.035-.392,3.518,3.518,0,0,0,1.444-1.979,6.516,6.516,0,0,0,.3-2.044,13.358,13.358,0,0,0-3.732-8.662l.5-.322a8.743,8.743,0,0,1-.146-1.554,3.447,3.447,0,0,1,1.227-3.064,2.9,2.9,0,0,1,3.07.387,11.661,11.661,0,0,1,4.807,8.989,4.9,4.9,0,0,1-.394,2.077,2.325,2.325,0,0,1-.833.981l-.081.049a3.284,3.284,0,0,0-.439,1.308,2.886,2.886,0,0,0,1.035-.392,3.522,3.522,0,0,0,1.444-1.973,6.55,6.55,0,0,0,.3-2.05,13.356,13.356,0,0,0-3.732-8.657l.5-.327a8.746,8.746,0,0,1-.146-1.554,3.453,3.453,0,0,1,1.227-3.064c.788-.5,1.879-.354,3.065.387a11.659,11.659,0,0,1,4.812,8.989,4.979,4.979,0,0,1-.394,2.077,2.293,2.293,0,0,1-.833.981l-.081.049a3.284,3.284,0,0,0-.439,1.308,2.887,2.887,0,0,0,1.035-.392,3.449,3.449,0,0,0,1.661-1.973,6.551,6.551,0,0,0,.3-2.05,13.37,13.37,0,0,0-3.732-8.662l.5-.322a8.622,8.622,0,0,1-.141-1.548,3.439,3.439,0,0,1,1.222-3.064,2.9,2.9,0,0,1,3.07.382,11.671,11.671,0,0,1,4.807,8.995,4.981,4.981,0,0,1-.389,2.077,2.371,2.371,0,0,1-.838.981l-.081.049a3.44,3.44,0,0,0-.439,1.308,2.939,2.939,0,0,0,1.035-.392,3.544,3.544,0,0,0,1.449-1.979,6.669,6.669,0,0,0,.293-2.044,13.2,13.2,0,0,0-3.717-8.635l.5-.322A8.727,8.727,0,0,1,213,51.234a3.445,3.445,0,0,1,1.222-3.064,2.9,2.9,0,0,1,3.07.387,11.661,11.661,0,0,1,4.807,8.989,4.981,4.981,0,0,1-.389,2.077,2.306,2.306,0,0,1-.8.954.641.641,0,0,1-.081.049,3.44,3.44,0,0,0-.439,1.308,2.838,2.838,0,0,0,1.035-.392,3.548,3.548,0,0,0,1.449-1.973,6.7,6.7,0,0,0,.293-2.05,13.381,13.381,0,0,0-3.732-8.662l.5-.322a8.734,8.734,0,0,1-.141-1.554,3.452,3.452,0,0,1,1.222-3.064c.788-.5,1.879-.354,3.07.387a11.661,11.661,0,0,1,4.807,8.989,4.9,4.9,0,0,1-.394,2.077,2.324,2.324,0,0,1-.833.981.637.637,0,0,1-.081.049,3.44,3.44,0,0,0-.439,1.308,2.842,2.842,0,0,0,1.01-.392,3.532,3.532,0,0,0,1.449-1.973,6.7,6.7,0,0,0,.293-2.05,13.356,13.356,0,0,0-3.732-8.657l.5-.327a8.71,8.71,0,0,1-.111-1.559,3.453,3.453,0,0,1,1.227-3.064c.788-.5,1.879-.354,3.07.387a11.669,11.669,0,0,1,4.807,8.989,4.881,4.881,0,0,1-.394,2.077,2.379,2.379,0,0,1-.833.987l-.081.044a3.44,3.44,0,0,0-.439,1.308,2.742,2.742,0,0,0,1.035-.392,3.51,3.51,0,0,0,1.449-1.973,6.679,6.679,0,0,0,.293-2.05,13.356,13.356,0,0,0-3.732-8.657l.5-.327a8.648,8.648,0,0,1-.146-1.554,3.454,3.454,0,0,1,1.227-3.064c.788-.5,1.879-.354,3.07.387a11.671,11.671,0,0,1,4.807,8.995,4.874,4.874,0,0,1-.394,2.071,2.278,2.278,0,0,1-.833.987l-.081.049a3.387,3.387,0,0,0-.439,1.308,2.978,2.978,0,0,0,1.035-.392,3.512,3.512,0,0,0,1.444-1.979,6.516,6.516,0,0,0,.3-2.044C243.479,41.187,241.11,36.722,238.156,34.891Z" transform="translate(-123.9 -34.065)" opacity="0.4"/>
        </g>
        <path id="Tracciato_120" data-name="Tracciato 120" d="M161.236,193.6l8.463-5.3c.626-.392,1.136-.114,1.141.616a2.622,2.622,0,0,1-1.131,2.033l-8.474,5.288c-.626.387-1.136.109-1.136-.621A2.664,2.664,0,0,1,161.236,193.6Z" transform="translate(-139.542 -104.138)" fill="#ff7609"/>
        <path id="Tracciato_121" data-name="Tracciato 121" d="M189.886,177.053l8.463-5.31c.626-.387,1.136-.114,1.141.621a2.667,2.667,0,0,1-1.131,2.033l-8.474,5.3c-.626.392-1.136.114-1.136-.616A2.654,2.654,0,0,1,189.886,177.053Z" transform="translate(-153.725 -96.612)" fill="#ff7609"/>
        <path id="Tracciato_122" data-name="Tracciato 122" d="M218.551,160.505l8.468-5.3c.626-.393,1.136-.114,1.141.616a2.65,2.65,0,0,1-1.131,2.033l-8.473,5.3c-.631.387-1.136.109-1.136-.621a2.661,2.661,0,0,1,1.131-2.028Z" transform="translate(-167.917 -89.086)" fill="#ff7609"/>
        <path id="Tracciato_123" data-name="Tracciato 123" d="M247.211,143.961l8.463-5.309c.626-.392,1.141-.114,1.141.621a2.628,2.628,0,0,1-1.126,2.028l-8.479,5.3c-.626.387-1.131.114-1.131-.616A2.649,2.649,0,0,1,247.211,143.961Z" transform="translate(-182.104 -81.558)" fill="#ff7609"/>
        <path id="Tracciato_124" data-name="Tracciato 124" d="M275.886,127.425l8.463-5.3c.626-.392,1.136-.114,1.141.616a2.64,2.64,0,0,1-1.126,2.033l-8.479,5.293c-.626.392-1.136.114-1.136-.616a2.665,2.665,0,0,1,1.136-2.022Z" transform="translate(-196.297 -74.039)" fill="#ff7609"/>
        <path id="Tracciato_125" data-name="Tracciato 125" d="M304.526,110.865l8.463-5.3c.626-.392,1.136-.114,1.141.621A2.622,2.622,0,0,1,313,108.211l-8.474,5.3c-.626.387-1.136.114-1.136-.616A2.671,2.671,0,0,1,304.526,110.865Z" transform="translate(-210.474 -66.506)" fill="#ff7609"/>
        <path id="Tracciato_126" data-name="Tracciato 126" d="M333.186,94.324l8.463-5.31c.626-.387,1.136-.109,1.141.621a2.654,2.654,0,0,1-1.131,2.017l-8.474,5.3c-.626.392-1.136.114-1.136-.616A2.664,2.664,0,0,1,333.186,94.324Z" transform="translate(-224.661 -58.981)" fill="#ff7609"/>
        <path id="Tracciato_127" data-name="Tracciato 127" d="M257.821,110.322l-.116,76.072L159.33,247.78V171.708L257.8,110.322m1.01-1.892L158.32,171.076v78.6l100.395-62.646.121-78.6Z" transform="translate(-138.661 -67.892)" fill="#e0e0e0"/>
        <path id="Tracciato_128" data-name="Tracciato 128" d="M186.225,285.534h0a.526.526,0,0,1-.5-.545V207.445a.526.526,0,0,1,.5-.545h0a.526.526,0,0,1,.5.545v77.544A.526.526,0,0,1,186.225,285.534Z" transform="translate(-152.225 -112.683)" fill="#e0e0e0"/>
        <path id="Tracciato_129" data-name="Tracciato 129" d="M214.635,269.114h0a.526.526,0,0,1-.5-.545l.03-77.544a.526.526,0,0,1,.5-.545h0a.526.526,0,0,1,.5.545l-.03,77.544A.526.526,0,0,1,214.635,269.114Z" transform="translate(-166.288 -105.214)" fill="#e0e0e0"/>
        <path id="Tracciato_130" data-name="Tracciato 130" d="M243.035,252.7h0a.526.526,0,0,1-.5-.545l.051-77.549a.526.526,0,0,1,.5-.545h0a.526.526,0,0,1,.5.545l-.051,77.549A.526.526,0,0,1,243.035,252.7Z" transform="translate(-180.347 -97.745)" fill="#e0e0e0"/>
        <path id="Tracciato_131" data-name="Tracciato 131" d="M271.435,236.28h0a.526.526,0,0,1-.5-.545L271,158.185a.526.526,0,0,1,.505-.545h0a.526.526,0,0,1,.505.545l-.066,77.544a.568.568,0,0,1-.146.389A.487.487,0,0,1,271.435,236.28Z" transform="translate(-194.406 -90.276)" fill="#e0e0e0"/>
        <path id="Tracciato_132" data-name="Tracciato 132" d="M299.835,219.864h0a.526.526,0,0,1-.505-.545l.086-77.544a.526.526,0,0,1,.5-.545h0a.526.526,0,0,1,.5.545l-.086,77.544A.526.526,0,0,1,299.835,219.864Z" transform="translate(-208.464 -82.812)" fill="#e0e0e0"/>
        <path id="Tracciato_133" data-name="Tracciato 133" d="M328.235,203.444h0a.526.526,0,0,1-.505-.545l.1-77.544a.526.526,0,0,1,.5-.545h0a.526.526,0,0,1,.5.545l-.1,77.549A.526.526,0,0,1,328.235,203.444Z" transform="translate(-222.523 -75.343)" fill="#e0e0e0"/>
        <path id="Tracciato_134" data-name="Tracciato 134" d="M158.995,207.082a.5.5,0,0,1-.439-.273.569.569,0,0,1,.187-.741l99.415-61.959a.485.485,0,0,1,.687.2.583.583,0,0,1,.053.414.542.542,0,0,1-.234.333l-99.41,61.959A.476.476,0,0,1,158.995,207.082Z" transform="translate(-138.745 -84.089)" fill="#e0e0e0"/>
        <path id="Tracciato_135" data-name="Tracciato 135" d="M158.991,243.136a.513.513,0,0,1-.491-.4.564.564,0,0,1,.239-.615l99.415-61.959a.486.486,0,0,1,.671.21.571.571,0,0,1-.166.733l-99.41,61.959a.444.444,0,0,1-.258.076Z" transform="translate(-138.742 -100.491)" fill="#e0e0e0"/>
        <path id="Tracciato_136" data-name="Tracciato 136" d="M158.995,279.167a.5.5,0,0,1-.439-.273.569.569,0,0,1,.187-.741l99.415-61.964a.487.487,0,0,1,.692.2.571.571,0,0,1-.187.747L159.252,279.1A.476.476,0,0,1,158.995,279.167Z" transform="translate(-138.745 -116.876)" fill="#e0e0e0"/>
        <g id="freepik--Note--inject-2" transform="translate(91.08 50.847)">
          <g id="freepik--note--inject-2-2" data-name="freepik--note--inject-2" transform="translate(1.618)">
            <path id="Tracciato_137" data-name="Tracciato 137" d="M302.96,136.623V156.03l14.9-9.283V127.34Z" transform="translate(-302.96 -127.34)" opacity="0.1"/>
            <path id="Tracciato_138" data-name="Tracciato 138" d="M322.153,148.477a9.673,9.673,0,0,1-3.328,2.949L305.7,159.6l-1.576-16.866,14.892-9.267.833,9.763C320,144.781,320.219,147.1,322.153,148.477Z" transform="translate(-303.534 -130.128)" fill="#ff7609"/>
            <path id="Tracciato_139" data-name="Tracciato 139" d="M319.042,130.906,304.15,140.19v-2.976l14.892-9.283Z" transform="translate(-303.549 -127.608)" fill="#ff7609"/>
            <path id="Tracciato_140" data-name="Tracciato 140" d="M319.042,130.906,304.15,140.19v-2.976l14.892-9.283Z" transform="translate(-303.549 -127.608)" opacity="0.1"/>
          </g>
          <path id="Tracciato_141" data-name="Tracciato 141" d="M320.15,146.072a11.963,11.963,0,0,0-.343-1.336.425.425,0,0,0-.051-.147,1.377,1.377,0,0,0-.212-1.439c-.061-.06-.212-.125-.258,0a2.091,2.091,0,0,0,.091,1.27,5.141,5.141,0,0,1-.434.839,6.55,6.55,0,0,1-.5.72c-.232.267-.586.654-.949.665a.456.456,0,0,1-.449-.371,5.516,5.516,0,0,0,.318-.545,3.982,3.982,0,0,0,.5-1.286.522.522,0,0,0-.134-.468.436.436,0,0,0-.441-.115c-.409.1-.55.692-.631,1.09a2.725,2.725,0,0,0,0,1.177,3.255,3.255,0,0,1-.313.442,1.531,1.531,0,0,1-.151.125.78.78,0,0,0,0-.142c0-.131-.182-.333-.308-.229-.323.278-.389.725-.591,1.09a.869.869,0,0,1-.177.234c-.086.082-.1.093-.136,0a2.724,2.724,0,0,0-.2-.545c-.061-.109-.268-.213-.348-.071a2.686,2.686,0,0,0-.273.692.48.48,0,0,0-.747,0,4.646,4.646,0,0,0-.662,1.019,3.381,3.381,0,0,1-.172.294l-.056.082a.189.189,0,0,1,0-.071,6.834,6.834,0,0,1,0-.91h0v-.055c0-.218-.439-.338-.439-.087a.756.756,0,0,0,0,.109,2.756,2.756,0,0,1-1.156,1.979c-.187.147-.651.512-.9.376s-.182-.545-.172-.741a4.938,4.938,0,0,1,.5-1.9,1.882,1.882,0,0,1,.586-.72.655.655,0,0,1,.535-.109c.237.093.212.387.152.6-.025.087.1.283.167.153a.747.747,0,0,0-.939-1.09,2.335,2.335,0,0,0-1.2,1.674,3.359,3.359,0,0,0-.167,2.1c.318.763,1.141.452,1.636.093a3.7,3.7,0,0,0,1.071-1.2.669.669,0,0,0,.091.12c.323.354.621.027.8-.294a5.4,5.4,0,0,1,.662-1.09c.035-.038.081-.065.111-.1h0a1.318,1.318,0,0,1,.04.278,4.973,4.973,0,0,0,.025.616c.025.2.353.354.414.12q.118-.667.3-1.319c.131.3.3.578.651.42s.46-.741.672-1.128a.34.34,0,0,0,.223.2.314.314,0,0,0,.282-.065,1.321,1.321,0,0,0,.384-.382l.04-.065a.854.854,0,0,0,.919.431,2.4,2.4,0,0,0,1.227-.992,5.837,5.837,0,0,0,.621-.981v.06a8.962,8.962,0,0,1,.268,1.5v.409a1.232,1.232,0,0,0-1.454.518c-.308.409-.409,1.216.141,1.461.46.207.985-.218,1.283-.545A3.119,3.119,0,0,0,320.15,146.072Zm-3.111-1.123a2.226,2.226,0,0,1,.167-.48.47.47,0,0,1,.106-.158c.035-.033.167-.087.157-.093s-.051.245-.071.311-.081.229-.121.343a5.9,5.9,0,0,1-.323.681,3.634,3.634,0,0,1,.086-.605Zm2.02,3.56c-.222.131-.449.234-.475-.114-.04-.578.722-1.281,1.242-1a1.386,1.386,0,0,1-.2.578,1.837,1.837,0,0,1-.555.512Z" transform="translate(-304.518 -134.499)" fill="#455a64"/>
          <path id="Tracciato_142" data-name="Tracciato 142" d="M311.452,161.227a9.143,9.143,0,0,1-.606,1.461c-.217.343-.6.616-.646,1.052,0,.06.066.213.136.142a5.156,5.156,0,0,0,.934-1.09v-.049c-.076.491-.167.976-.212,1.466s-.111,1.008-.167,1.51-.061,1-.146,1.483c-.05.245.364.414.434.147a5.758,5.758,0,0,0,.066-.73c.025-.267.056-.545.086-.812.061-.5.116-1,.167-1.51a28.924,28.924,0,0,0,.338-2.949C311.856,161.134,311.538,161.014,311.452,161.227Z" transform="translate(-304.926 -142.704)" fill="#455a64"/>
          <path id="Tracciato_143" data-name="Tracciato 143" d="M316.562,160.872a1.166,1.166,0,0,0-.374-.409c-.146-.087-.4-.191-.561-.082a.179.179,0,0,0-.051-.044c-.5-.142-.823.322-1.045.725a8.1,8.1,0,0,0-.5,1.27c-.263.752-.5,2.039.237,2.584a1.317,1.317,0,0,0,1.843-.545,4.451,4.451,0,0,0,.692-2.3,2.407,2.407,0,0,0-.237-1.2Zm-.747,2.971c-.227.436-.682,1-1.207.807-.3-.109-.369-.512-.379-.812a3.43,3.43,0,0,1,.172-1.15,10.209,10.209,0,0,1,.434-1.161c.141-.322.389-.878.773-.916a.141.141,0,0,0,.04.038,2.077,2.077,0,0,1,.348.164.66.66,0,0,1,.156.213,1.969,1.969,0,0,1,.151.834A4.331,4.331,0,0,1,315.815,163.843Z" transform="translate(-306.692 -142.338)" fill="#455a64"/>
          <path id="Tracciato_144" data-name="Tracciato 144" d="M328.218,158.988c-.187-.436-.288-.916-.434-1.368a2.381,2.381,0,0,0-.591-1.134c-.086-.071-.258-.131-.323,0a4.78,4.78,0,0,0-.5,1.57,2.138,2.138,0,0,0-.237-.294.224.224,0,0,0-.3,0,.861.861,0,0,0-.192.283,1.636,1.636,0,0,0-.419-.621.219.219,0,0,0-.3,0c-.5.545-.374,1.548-.5,2.235a.87.87,0,0,1-.141.414c-.106.1-.141,0-.2-.114a2.3,2.3,0,0,1-.252-.8V158.9h0v-.055c0-.218-.454-.3-.449-.044a2.746,2.746,0,0,1-.338,1.635c-.136.224-.687,1.09-.924.545-.172-.365.091-.878.273-1.183a2.187,2.187,0,0,1,.858-.889h0c.1-.06,0-.256-.1-.251-.535.027-1.01.649-1.242,1.09s-.444,1.15,0,1.586c.5.545,1.1,0,1.424-.458a3.5,3.5,0,0,0,.424-.812v.038c.182.311.571.583.879.273a1.988,1.988,0,0,0,.323-1.237,3.819,3.819,0,0,1,.207-1.243,3.135,3.135,0,0,1,.343,1.183c.025.2.384.333.419.082a3.09,3.09,0,0,1,.146-.916,4.6,4.6,0,0,1,.338.611c.081.153.434.262.4,0a3.539,3.539,0,0,1,.343-1.859,3.682,3.682,0,0,1,.338.883,10.046,10.046,0,0,0,.379,1.167C327.935,159.211,328.329,159.238,328.218,158.988Z" transform="translate(-310.586 -140.563)" fill="#455a64"/>
          <path id="Tracciato_145" data-name="Tracciato 145" d="M299.768,143.556a4.269,4.269,0,0,1,1.772-3.271,1.152,1.152,0,0,1,1.283-.114h0l.8.512-.323.621v.065a4.288,4.288,0,0,1-1.772,3.3h0l-.369.7-.874-.545h-.03A1.386,1.386,0,0,1,299.768,143.556Z" transform="translate(-299.755 -133.111)" fill="#37474f"/>
          <path id="Tracciato_146" data-name="Tracciato 146" d="M305.045,142.351a4.283,4.283,0,0,1-1.772,3.3c-.98.611-1.772.125-1.772-1.09a4.275,4.275,0,0,1,1.772-3.271C304.247,140.656,305.045,141.141,305.045,142.351Z" transform="translate(-300.619 -133.558)" fill="#455a64"/>
        </g>
        <g id="freepik--note--inject-2-3" data-name="freepik--note--inject-2" transform="translate(48.958 117.27)">
          <g id="freepik--note--inject-2-4" data-name="freepik--note--inject-2" transform="translate(1.616)">
            <path id="Tracciato_147" data-name="Tracciato 147" d="M219.54,258.473V277.88l14.892-9.283V249.19Z" transform="translate(-219.54 -249.19)" opacity="0.1"/>
            <path id="Tracciato_148" data-name="Tracciato 148" d="M238.728,270.26a9.68,9.68,0,0,1-3.323,2.949l-13.129,8.177-1.576-16.9,14.9-9.267.833,9.763C236.571,266.586,236.784,268.908,238.728,270.26Z" transform="translate(-220.114 -251.933)" fill="#ff7609"/>
            <path id="Tracciato_149" data-name="Tracciato 149" d="M235.617,252.756l-14.9,9.283v-2.976l14.9-9.283Z" transform="translate(-220.124 -249.458)" fill="#ff7609"/>
            <path id="Tracciato_150" data-name="Tracciato 150" d="M235.617,252.756l-14.9,9.283v-2.976l14.9-9.283Z" transform="translate(-220.124 -249.458)" opacity="0.1"/>
          </g>
          <path id="Tracciato_151" data-name="Tracciato 151" d="M235.957,271.809l.141-.033c.212-.033.056-.36-.111-.349h-.146c-.045-.114-.086-.234-.131-.354a8.915,8.915,0,0,0-1.454-2.726c-.1-.109-.328-.142-.333.06a10.119,10.119,0,0,1-.369,2.18h0a3.071,3.071,0,0,0-.157-.687c-.056-.164-.364-.305-.384-.038a1.428,1.428,0,0,0,.126.741,11.356,11.356,0,0,1-.273,3.156c-.121.425-.343,1.036-.853.829h0c.03-.136.05-.267.071-.382.212-1.123.591-3.025-.722-3.543a.136.136,0,0,0-.177.055,4.573,4.573,0,0,0-.263,2.022,2.9,2.9,0,0,0,.651,1.984.931.931,0,0,1-.293.491c-.394.294-.909-.409-1.106-.692-.061-.087-.222-.2-.323-.1a2.308,2.308,0,0,0-.424,1.777.22.22,0,0,0-.242-.055.949.949,0,0,0-.5.9c-.232-.442-.54-.741-.985-.425a1.287,1.287,0,0,0-.505.7,2.542,2.542,0,0,0-.555-1.4.77.77,0,0,0-1.116,0,2.406,2.406,0,0,0-.444,1.455,2.77,2.77,0,0,0,.071.818c.025.087.056.224.157.24s.136-.082.106-.18c-.146-.5.086-2.513.879-2.18.424.185.48,1.117.54,1.526.116.78.278,1.554.4,2.328.04.24.434.343.439.044,0-.878-.389-2,.111-2.791.061-.1.217-.322.343-.273s.192.278.242.387c.146.333.227.7.384,1.025.086.18.419.283.419,0,0-.447-.252-1.3.071-1.684.076.142.146.283.212.431s.424.289.414,0a4.748,4.748,0,0,1,.141-2.18c.323.387.763.818,1.242.747.353-.055.53-.365.641-.714a.848.848,0,0,0,1.141-.4,5.4,5.4,0,0,0,.505-2.268,11.886,11.886,0,0,0,.035-1.287.756.756,0,0,0,.2,0,.143.143,0,0,0,.136-.109,10.377,10.377,0,0,0,.384-1.957,9.292,9.292,0,0,1,1.01,2.055c.061.164.121.327.177.5a1.607,1.607,0,0,0-1.086,1.39,1.744,1.744,0,0,0,.97,1.537c.656.256.924-.512.9-1.09A6.133,6.133,0,0,0,235.957,271.809Zm-4.711,1.216a4.219,4.219,0,0,1,.172-1.908c.737.491.414,2,.288,2.726-.025.136-.045.305-.071.48a2.877,2.877,0,0,1-.389-1.3Zm4.348,1.09c-.268.076-.5-.322-.641-.545a1.194,1.194,0,0,1,.672-1.635,5.934,5.934,0,0,1,.258,1.281C235.9,273.488,235.9,274.028,235.593,274.115Z" transform="translate(-220.662 -257.865)" fill="#455a64"/>
          <path id="Tracciato_152" data-name="Tracciato 152" d="M246.132,264.778a10.751,10.751,0,0,0-.651-1.586c-.131-.273-.268-.545-.389-.818s-.212-.512-.333-.752c-.071-.136-.379-.234-.369,0a3.21,3.21,0,0,0,.2.839c.1.278.212.545.323.829a15.468,15.468,0,0,1,.6,1.554c.076.267.1.66.444.632S246.213,265.035,246.132,264.778Z" transform="translate(-230.226 -254.781)" fill="#455a64"/>
          <path id="Tracciato_153" data-name="Tracciato 153" d="M249.05,271Z" transform="translate(-232.533 -259.111)" fill="#455a64"/>
          <path id="Tracciato_154" data-name="Tracciato 154" d="M249.046,271.452a.579.579,0,0,0-.04-.153.183.183,0,0,0-.03-.055h0a.274.274,0,0,0-.136-.174l-.106-.082-.071-.044a.2.2,0,0,0-.167,0,.118.118,0,0,0-.051.038.173.173,0,0,0-.025.087.282.282,0,0,0,0,.093,1,1,0,0,0-.045.109q0,.065,0,.131a.294.294,0,0,0,0,.114.359.359,0,0,0,.152.224.676.676,0,0,0,.288.1.218.218,0,0,0,.172-.033l.04-.038a.182.182,0,0,0,.04-.109A.539.539,0,0,0,249.046,271.452Z" transform="translate(-232.195 -259.077)" fill="#455a64"/>
          <path id="Tracciato_155" data-name="Tracciato 155" d="M216.35,265.394a4.283,4.283,0,0,1,1.773-3.3,1.143,1.143,0,0,1,1.283-.109h0l.808.518-.328.616v.065a4.261,4.261,0,0,1-1.767,3.3h0l-.364.7-.879-.545h-.03A1.384,1.384,0,0,1,216.35,265.394Z" transform="translate(-216.341 -254.944)" fill="#37474f"/>
          <path id="Tracciato_156" data-name="Tracciato 156" d="M221.615,264.192a4.275,4.275,0,0,1-1.772,3.271c-.975.611-1.772.125-1.772-1.09a4.294,4.294,0,0,1,1.772-3.3C220.822,262.491,221.615,262.976,221.615,264.192Z" transform="translate(-217.197 -255.394)" fill="#455a64"/>
        </g>
        <path id="Tracciato_157" data-name="Tracciato 157" d="M282.567,218.923,309.558,202.1c1.8-1.118,3.257-.376,3.257,1.635a7.566,7.566,0,0,1-3.257,5.713l-26.991,16.822c-1.8,1.123-3.257.382-3.257-1.635A7.547,7.547,0,0,1,282.567,218.923Z" transform="translate(-198.554 -110.261)" fill="#ff7609"/>
        <path id="Tracciato_158" data-name="Tracciato 158" d="M200.318,325.25a.892.892,0,0,1-.5-.147l-8.585-5.359a1.133,1.133,0,0,1-.024-1.918.947.947,0,0,1,1.034.032l8.585,5.359a1.128,1.128,0,0,1,.469,1.225,1.026,1.026,0,0,1-.974.808Z" transform="translate(-154.684 -163.078)" fill="#ff7609"/>
        <path id="Tracciato_159" data-name="Tracciato 159" d="M192.481,325.866a1,1,0,0,1-.881-.541,1.166,1.166,0,0,1,0-1.094l7.61-14.86a.973.973,0,0,1,1.374-.425,1.137,1.137,0,0,1,.394,1.483l-7.61,14.855A1,1,0,0,1,192.481,325.866Z" transform="translate(-155.067 -159.039)" fill="#ff7609"/>
        <path id="Tracciato_160" data-name="Tracciato 160" d="M286.613,265.191a3.11,3.11,0,0,0-.813-2.012,3.47,3.47,0,0,0-1.964-.938,5.776,5.776,0,0,0-3.2.545,8.521,8.521,0,0,0-2.338,1.728c-.313.305-.626.611-.959.889-.177.147.081.447.253.338.757-.48,1.424-1.09,2.161-1.6a6.44,6.44,0,0,1,2.666-1.09c1.288-.2,2.99.185,3.348,1.744a6.3,6.3,0,0,1-.086,2.36,10.629,10.629,0,0,1-.677,2.306,10.959,10.959,0,0,1-2.7,3.816,8.032,8.032,0,0,1-3.469,2.088,4.914,4.914,0,0,1-3.308-.333,2.785,2.785,0,0,1-1.126-1.058,3.9,3.9,0,0,1-.419-1.93,10.374,10.374,0,0,1,1.091-4.694,12.679,12.679,0,0,1,6.873-6.329c.4-.142.813-.267,1.222-.382a.3.3,0,0,0,.14-.314.276.276,0,0,0-.241-.231,9.71,9.71,0,0,0-4.762,2.11A13.921,13.921,0,0,0,274.7,266.4a11.547,11.547,0,0,0-1.515,5.124,4.411,4.411,0,0,0,1.424,3.963,5.166,5.166,0,0,0,3.681.834,7.708,7.708,0,0,0,3.858-1.848,12.228,12.228,0,0,0,3.272-4.061A10.827,10.827,0,0,0,286.613,265.191Z" transform="translate(-195.515 -136.883)" fill="#f28f8f"/>
        <path id="Tracciato_161" data-name="Tracciato 161" d="M169.212,222.917l1.04,2.382a.168.168,0,0,0,.092.1.151.151,0,0,0,.13-.006l2.323-.959c.242-.1.338.267.162.621l-1.677,3.407a.8.8,0,0,0-.086.431l.394,3.08c.045.322-.212.747-.429.714l-2.075-.278a.33.33,0,0,0-.273.174l-2.081,2.873c-.217.3-.47.191-.429-.185l.4-3.576a.362.362,0,0,0-.086-.322l-1.682-1.308c-.172-.136-.076-.627.167-.829l2.323-1.935a.766.766,0,0,0,.222-.371l1.035-3.674C168.793,222.879,169.106,222.688,169.212,222.917Z" transform="translate(-141.892 -119.924)" fill="#f28f8f"/>
        <path id="Tracciato_162" data-name="Tracciato 162" d="M218.966,192.828l7.888-4.906c.333-.207.606-.06.606.333a1.422,1.422,0,0,1-.606,1.09l-7.888,4.906c-.333.207-.606.06-.606-.333A1.422,1.422,0,0,1,218.966,192.828Z" transform="translate(-168.382 -104.008)" fill="#455a64"/>
        <path id="Tracciato_163" data-name="Tracciato 163" d="M218.966,200.479l5.439-3.391c.338-.213.606-.065.606.327a1.422,1.422,0,0,1-.606,1.09l-5.439,3.4c-.333.207-.606.06-.606-.333A1.422,1.422,0,0,1,218.966,200.479Z" transform="translate(-168.382 -108.176)" fill="#455a64"/>
        <path id="Tracciato_164" data-name="Tracciato 164" d="M274.816,192.1l7.883-4.906c.333-.207.606-.06.606.333a1.428,1.428,0,0,1-.606,1.09l-7.883,4.906c-.338.207-.606.06-.606-.333A1.422,1.422,0,0,1,274.816,192.1Z" transform="translate(-196.029 -103.676)" fill="#455a64"/>
        <path id="Tracciato_165" data-name="Tracciato 165" d="M274.816,199.782l5.439-3.391c.333-.207.606-.06.606.333a1.422,1.422,0,0,1-.606,1.09l-5.439,3.391c-.338.213-.606.06-.606-.327A1.417,1.417,0,0,1,274.816,199.782Z" transform="translate(-196.029 -107.861)" fill="#455a64"/>
        <path id="Tracciato_166" data-name="Tracciato 166" d="M164.276,291.966l7.883-4.906c.338-.213.606-.06.606.327a1.422,1.422,0,0,1-.606,1.09l-7.883,4.906c-.338.213-.606.06-.606-.327A1.422,1.422,0,0,1,164.276,291.966Z" transform="translate(-141.31 -149.102)" fill="#455a64"/>
        <path id="Tracciato_167" data-name="Tracciato 167" d="M164.276,299.652l5.439-3.391c.333-.207.606-.06.606.333a1.428,1.428,0,0,1-.606,1.09l-5.439,3.391c-.338.207-.606.06-.606-.333A1.405,1.405,0,0,1,164.276,299.652Z" transform="translate(-141.31 -153.289)" fill="#455a64"/>
        <path id="Tracciato_168" data-name="Tracciato 168" d="M304.086,247.346l7.883-4.906c.338-.213.606-.06.606.327a1.422,1.422,0,0,1-.606,1.09l-7.883,4.906c-.338.213-.606.06-.606-.327A1.422,1.422,0,0,1,304.086,247.346Z" transform="translate(-210.519 -128.806)" fill="#455a64"/>
        <path id="Tracciato_169" data-name="Tracciato 169" d="M304.086,255.032l5.439-3.391c.333-.207.606-.06.606.333a1.427,1.427,0,0,1-.606,1.09l-5.439,3.391c-.338.207-.606.06-.606-.333a1.405,1.405,0,0,1,.606-1.09Z" transform="translate(-210.519 -132.993)" fill="#455a64"/>
        <path id="Tracciato_170" data-name="Tracciato 170" d="M215.126,221.06l10.7-6.76L215.06,233.319Z" transform="translate(-166.749 -116.05)" fill="#ff7609"/>
        <path id="Tracciato_171" data-name="Tracciato 171" d="M215.126,221.06l10.7-6.76L215.06,233.319Z" transform="translate(-166.749 -116.05)" opacity="0.3"/>
        <path id="Tracciato_172" data-name="Tracciato 172" d="M138.526,235.516l6.635-4.148c.348-.218.636-.065.636.349a1.467,1.467,0,0,1-.631,1.139L138.526,237c-.353.218-.636.06-.636-.349A1.488,1.488,0,0,1,138.526,235.516Z" transform="translate(-128.548 -123.768)" fill="#ff7609"/>
        <path id="Tracciato_173" data-name="Tracciato 173" d="M138.526,242.215l4.893-3.058c.348-.218.636-.065.641.349a1.488,1.488,0,0,1-.636,1.139l-4.9,3.053c-.354.224-.636.065-.636-.343A1.488,1.488,0,0,1,138.526,242.215Z" transform="translate(-128.548 -127.311)" fill="#ff7609"/>
        <path id="Tracciato_174" data-name="Tracciato 174" d="M138.526,271.506l6.635-4.148c.348-.218.636-.065.636.349a1.467,1.467,0,0,1-.631,1.139l-6.64,4.148c-.353.218-.636.065-.636-.349A1.5,1.5,0,0,1,138.526,271.506Z" transform="translate(-128.548 -140.139)" fill="#ff7609"/>
        <path id="Tracciato_175" data-name="Tracciato 175" d="M138.526,278.205l4.893-3.058c.348-.218.636-.065.641.349a1.488,1.488,0,0,1-.636,1.139l-4.9,3.058c-.354.218-.636.06-.636-.349A1.488,1.488,0,0,1,138.526,278.205Z" transform="translate(-128.548 -143.682)" fill="#ff7609"/>
        <path id="Tracciato_176" data-name="Tracciato 176" d="M138.526,307.566l6.635-4.148c.348-.218.636-.065.636.349a1.466,1.466,0,0,1-.631,1.139l-6.64,4.148c-.353.218-.636.06-.636-.349a1.488,1.488,0,0,1,.636-1.139Z" transform="translate(-128.548 -156.542)" fill="#ff7609"/>
        <path id="Tracciato_177" data-name="Tracciato 177" d="M138.526,314.265l4.893-3.058c.348-.218.636-.065.641.349a1.488,1.488,0,0,1-.636,1.139l-4.9,3.053c-.354.218-.636.065-.636-.343a1.488,1.488,0,0,1,.636-1.139Z" transform="translate(-128.548 -160.085)" fill="#ff7609"/>
        <path id="Tracciato_178" data-name="Tracciato 178" d="M138.526,343.534l6.635-4.148c.348-.224.636-.065.636.343a1.467,1.467,0,0,1-.631,1.145l-6.64,4.148c-.353.218-.636.06-.636-.349a1.488,1.488,0,0,1,.636-1.139Z" transform="translate(-128.548 -172.902)" fill="#ff7609"/>
        <path id="Tracciato_179" data-name="Tracciato 179" d="M138.526,350.233l4.893-3.058c.348-.224.636-.065.641.349a1.488,1.488,0,0,1-.636,1.139l-4.9,3.053c-.354.218-.636.065-.636-.343A1.488,1.488,0,0,1,138.526,350.233Z" transform="translate(-128.548 -176.445)" fill="#ff7609"/>
        <g id="Raggruppa_35" data-name="Raggruppa 35" transform="translate(9.342 111.747)" opacity="0.4">
          <path id="Tracciato_180" data-name="Tracciato 180" d="M138.526,242.215l4.893-3.058c.348-.218.636-.065.641.349a1.488,1.488,0,0,1-.636,1.139l-4.9,3.053c-.354.224-.636.065-.636-.343A1.488,1.488,0,0,1,138.526,242.215Z" transform="translate(-137.89 -239.058)"/>
          <path id="Tracciato_181" data-name="Tracciato 181" d="M138.526,278.205l4.893-3.058c.348-.218.636-.065.641.349a1.488,1.488,0,0,1-.636,1.139l-4.9,3.058c-.354.218-.636.06-.636-.349A1.488,1.488,0,0,1,138.526,278.205Z" transform="translate(-137.89 -255.429)"/>
          <path id="Tracciato_182" data-name="Tracciato 182" d="M138.526,314.265l4.893-3.058c.348-.218.636-.065.641.349a1.488,1.488,0,0,1-.636,1.139l-4.9,3.053c-.354.218-.636.065-.636-.343a1.488,1.488,0,0,1,.636-1.139Z" transform="translate(-137.89 -271.832)"/>
          <path id="Tracciato_183" data-name="Tracciato 183" d="M138.526,350.233l4.893-3.058c.348-.224.636-.065.641.349a1.488,1.488,0,0,1-.636,1.139l-4.9,3.053c-.354.218-.636.065-.636-.343A1.488,1.488,0,0,1,138.526,350.233Z" transform="translate(-137.89 -288.192)"/>
        </g>
        <path id="Tracciato_184" data-name="Tracciato 184" d="M348.074,219.08a43.822,43.822,0,0,0-4.252,2.469c-8.807,6.122-15.533,20.24-15.028,31.535.03.654.086,1.276.162,1.881l19.118-11.916Z" transform="translate(-223.036 -118.224)" opacity="0.1"/>
      </g>
    </g>
    <g id="freepik--Clock--inject-2" transform="translate(175.843 137.264)">
      <g id="freepik--clock--inject-2-2" data-name="freepik--clock--inject-2" transform="translate(0 0)">
        <path id="Tracciato_185" data-name="Tracciato 185" d="M361.661,226.988h0l-4.368-2.726h-.035c-2.782-1.554-6.464-1.09-10.423,1.635-7.953,5.533-14.028,18.283-13.569,28.483.227,5.086,2.02,8.575,4.782,10.112h0l4.368,2.726h.03c2.752,1.51,6.433,1.09,10.4-1.684,7.953-5.528,14.028-18.283,13.569-28.483C366.216,232.014,364.428,228.525,361.661,226.988Z" transform="translate(-333.242 -223.378)" fill="#37474f"/>
        <path id="Tracciato_186" data-name="Tracciato 186" d="M342.249,281.1l-4.171-2.622h-.025c-2.742-1.543-4.545-5.031-4.777-10.107a33.879,33.879,0,0,1,2.873-14.3l4.368,2.726a33.864,33.864,0,0,0-2.868,14.293C337.866,276.06,339.6,279.505,342.249,281.1Z" transform="translate(-333.246 -237.339)" fill="#263238"/>
        <path id="Tracciato_187" data-name="Tracciato 187" d="M357.181,267.848c7.953-5.528,14.028-18.283,13.569-28.483s-7.282-13.988-15.235-8.477-14.049,18.3-13.544,28.5S349.223,273.375,357.181,267.848Z" transform="translate(-337.549 -225.644)" fill="#455a64"/>
        <path id="Tracciato_188" data-name="Tracciato 188" d="M353.455,269.826c-4.691.251-5.454-5.451-5.555-7.9-.4-8.994,5.181-20.715,12.2-25.621a10.2,10.2,0,0,1,5.05-2.017c4.691-.245,5.454,5.451,5.555,7.9.4,8.995-5.181,20.715-12.2,25.621A10.138,10.138,0,0,1,353.455,269.826Z" transform="translate(-340.488 -228.335)" fill="#fafafa"/>
        <path id="Tracciato_189" data-name="Tracciato 189" d="M371.809,258.228a.588.588,0,0,1-.146,0,.546.546,0,0,1-.343-.545V244.665a.506.506,0,1,1,1.01,0V256.08l5.625-7.8a.5.5,0,0,1,.34-.209.479.479,0,0,1,.377.117.56.56,0,0,1,.18.373.574.574,0,0,1-.12.4l-6.534,9.065A.492.492,0,0,1,371.809,258.228Z" transform="translate(-352.091 -232.813)" fill="#37474f"/>
        <path id="Tracciato_190" data-name="Tracciato 190" d="M366.369,278.681H366.3a.238.238,0,0,1-.146-.289l2.828-10.3a.212.212,0,0,1,.4-.042.245.245,0,0,1,.016.178l-2.818,10.281A.23.23,0,0,1,366.369,278.681Z" transform="translate(-349.529 -243.645)" fill="#ff7609"/>
        <path id="Tracciato_191" data-name="Tracciato 191" d="M370.436,263.972c.934-.649,1.737-.2,1.793,1a4.287,4.287,0,0,1-1.6,3.353c-.934.649-1.737.2-1.793-1A4.287,4.287,0,0,1,370.436,263.972Z" transform="translate(-350.864 -241.708)" fill="#ff7609"/>
      </g>
    </g>
    <g id="freepik--Pencil--inject-2" transform="translate(87.512 197.332)">
      <g id="freepik--pencil--inject-2-2" data-name="freepik--pencil--inject-2">
        <path id="freepik--shadow--inject-2-5" data-name="freepik--shadow--inject-2" d="M159.007,387.48c-2.995,1.635,4.545,7.4,8.307,5.179l65.541-41.429,7.868-8.962a.572.572,0,0,0,.162-.752.485.485,0,0,0-.7-.174l-15.175,5Z" transform="translate(-158.32 -337.068)" fill="#e0e0e0"/>
        <path id="Tracciato_192" data-name="Tracciato 192" d="M291.58,336.53l13.963-2.955a.426.426,0,0,1,.445.24.5.5,0,0,1-.056.534l-9.473,11.578Z" transform="translate(-224.286 -333.571)" fill="#ffa8a7"/>
        <path id="Tracciato_193" data-name="Tracciato 193" d="M316.926,334.352a.5.5,0,0,0,.049-.542.424.424,0,0,0-.458-.227l-2.727.578h0a2.645,2.645,0,0,1,1.126,2.4v.267Z" transform="translate(-235.281 -333.573)" fill="#263238"/>
        <path id="Tracciato_194" data-name="Tracciato 194" d="M193.319,380.65l1.146-.709,1.379-.845,49.543-30.674a7.356,7.356,0,0,0-.389-5c-1.01-2.393-2.914-4.285-4.5-4.394l-49.488,30.658-2.636,1.635C190.107,370.364,195.076,379.669,193.319,380.65Z" transform="translate(-173.195 -336.054)" fill="#ff7609"/>
        <path id="Tracciato_195" data-name="Tracciato 195" d="M201.865,401.3l2.525-1.586c.752-.431.323-2.426-.561-4.492-1.161-2.726-3.454-5.4-4.454-4.83l-1.878,1.167-.667.431c1.01-.572,3.292,2.082,4.454,4.83.843,1.979,1.273,3.9.631,4.426h0a.178.178,0,0,1-.05.055Z" transform="translate(-177.383 -359.384)" fill="#ebebeb"/>
        <path id="Tracciato_196" data-name="Tracciato 196" d="M200.64,401.9c1.747-1-3.262-10.314-5.014-9.311l-2.555,1.575c1.752-1,6.762,8.313,5.009,9.316Z" transform="translate(-175.522 -360.382)" fill="#ff7609"/>
        <path id="Tracciato_197" data-name="Tracciato 197" d="M193.3,406.209l2.525-1.554c1.727-.97-3.03-10-4.863-9.409a.437.437,0,0,0-.106.044l-2.525,1.586C190.087,395.923,195.056,405.228,193.3,406.209Z" transform="translate(-173.175 -361.613)" fill="#ebebeb"/>
        <path id="Tracciato_198" data-name="Tracciato 198" d="M258.173,333.862l-.47-.262-10.13,6-52.391,32.435c-.1-.169-.177-.18-.242-.06,1.49,2.5,2.616,5.658,1.631,6.209l1.146-.709,1.379-.845,49.543-30.674h0l9.453-11.589A.48.48,0,0,0,258.173,333.862Z" transform="translate(-176.448 -333.584)" opacity="0.15"/>
        <path id="Tracciato_199" data-name="Tracciato 199" d="M171.155,414.128l10.7-6.612c.752-.42.338-2.393-.5-4.448-1.156-2.753-3.439-5.451-4.444-4.906h0l-10.8,6.667c-2.131,1.325-.172,6.329,2.207,8.559A2.466,2.466,0,0,0,171.155,414.128Z" transform="translate(-161.722 -362.919)" fill="#f28f8f"/>
        <path id="Tracciato_200" data-name="Tracciato 200" d="M171.8,416.085c-.611-2.606-2.565-5.157-4.363-5.707a1.645,1.645,0,0,0-1.6.234c-1.611,1.635.263,6.2,2.525,8.313a2.431,2.431,0,0,0,2.757.763C171.913,419.181,172.221,417.851,171.8,416.085Z" transform="translate(-161.742 -368.458)" opacity="0.1"/>
      </g>
    </g>
    <g id="freepik--Character--inject-2" transform="translate(187.912 72.151)">
      <g id="freepik--character--inject-2-2" data-name="freepik--character--inject-2">
        <path id="Tracciato_201" data-name="Tracciato 201" d="M446.619,325.124c.333.142.4.84.424,2.213,0,1.041.187,2.862-.949,3.2a3.346,3.346,0,0,1-3.489-.889c-.879-1.248-1.464-2.339-2.722-3.865-1.091-1.325-2.277-2.562-2.692-4.388-.374-1.635,0-2.355,1.01-2.807,1.439-.621,3.636,1.575,4.747,1.941C443.912,320.845,446.27,324.977,446.619,325.124Z" transform="translate(-396.697 -201.524)" fill="#263238"/>
        <path id="Tracciato_202" data-name="Tracciato 202" d="M451.738,327.716l-.035,1.69a3.588,3.588,0,0,1-3.954,0c-.066-.164-.359-2.426-.359-2.426Z" transform="translate(-401.816 -205.391)" fill="#ffa8a7"/>
        <path id="Tracciato_203" data-name="Tracciato 203" d="M413.272,347.973s.414,1.477.631,2.769a8.05,8.05,0,0,1,.066,3.494c-.343.769-1.651,1.227-3.651,1.161a11.385,11.385,0,0,0-4.742,1.635,12.081,12.081,0,0,1-5.934.867c-1.777-.267-3.6-1.428-3.868-2.23s.126-1.635,4.368-3.451c.035,0,5.878-1.908,7.958-4.279Z" transform="translate(-376.232 -214.925)" fill="#263238"/>
        <path id="Tracciato_204" data-name="Tracciato 204" d="M425.452,344.591s-.03,1.254-.04,1.968-.813,1.766-2.838,1.635c-1.424-.087-2.409-.545-2.328-1.788l.04-1.826Z" transform="translate(-388.376 -213.397)" fill="#ffa8a7"/>
        <path id="Tracciato_205" data-name="Tracciato 205" d="M435.542,248.239a49.231,49.231,0,0,0-1.661-8.836s.717-7.572,1.131-14.757c.454-7.763.874-11.758-.54-22.971,0,0-22.047-2.137-22.648,6.836s.252,31.862.444,35.815.752,7.452,1.374,13.868c.611,6.329,2.394,21.26,2.394,21.26a5.125,5.125,0,0,0,5.166,0s2.02-17.918,1.934-22.475a41.827,41.827,0,0,0-1.394-9.97s.6-7.4,1.121-13.83,1.01-9.512,1.146-12.314l.505-.251s.278,11.121.47,15.073.7,7.752,1.6,15.105c.783,6.378,3.232,19.892,3.232,19.892,2.621,1.635,4.242-.1,4.242-.1S436.123,253.772,435.542,248.239Z" transform="translate(-384.105 -148.291)" fill="#455a64"/>
        <path id="Tracciato_206" data-name="Tracciato 206" d="M436.12,232.539s5.7-2.856,8.585-5.489c0,0-2.7,3.914-6.171,5.6,0,0-1.515,13.775-1.515,13.5l-.424-13.628Z" transform="translate(-396.237 -159.935)" fill="#37474f"/>
        <path id="Tracciato_207" data-name="Tracciato 207" d="M428.3,141.736l.858,8.215,7.191-.392-.8-9.589Z" transform="translate(-392.366 -120.324)" fill="#ffa8a7"/>
        <path id="Tracciato_208" data-name="Tracciato 208" d="M448.843,148.981c2.676-.136,4.04.3,5.237,2.791s1.677,9.938,2.091,13.775.5,6.541-.939,6.939a58.508,58.508,0,0,1-7.161.545Z" transform="translate(-402.152 -124.413)" fill="#455a64"/>
        <path id="Tracciato_209" data-name="Tracciato 209" d="M435.294,153.19c-.389-2.3-3.191-4.715-5.812-4.257l-1.777.327c-.318,1.379-3.823,2.246-7.176,1.4-1.01.283-4.338.959-5.176,1.259-2.414.861-3.4,3.423-3.782,11.905,0,0,.192,19.2.1,23.031a26.912,26.912,0,0,0,15.654,2.055c7.216-1.521,8.15-4.715,8.15-4.715L434.4,175.4S436.167,158.391,435.294,153.19Z" transform="translate(-384.084 -124.376)" fill="#ff7609"/>
        <path id="Tracciato_210" data-name="Tracciato 210" d="M435.294,153.19c-.389-2.3-3.191-4.715-5.812-4.257l-1.777.327c-.318,1.379-3.823,2.246-7.176,1.4-1.01.283-4.338.959-5.176,1.259-2.414.861-3.4,3.423-3.782,11.905,0,0,.192,19.2.1,23.031a26.912,26.912,0,0,0,15.654,2.055c7.216-1.521,8.15-4.715,8.15-4.715L434.4,175.4S436.167,158.391,435.294,153.19Z" transform="translate(-384.084 -124.376)" opacity="0.2"/>
        <path id="Tracciato_211" data-name="Tracciato 211" d="M426.959,147.037l.056.518a9.971,9.971,0,0,0,4.413,0c2.333-.545,2.808-1.276,2.808-1.276l-.051-.589s.581-.229.889.736q.2.579.338,1.177s.268,1.766-2.479,2.666a7.95,7.95,0,0,1-6.837-.807l-1.076.245s.929-2.317,1.212-2.786a.712.712,0,0,1,.677-.4Z" transform="translate(-390.742 -122.916)" fill="#455a64"/>
        <g id="freepik--device-2--inject-2" transform="translate(0.566 20.9)">
          <path id="Tracciato_212" data-name="Tracciato 212" d="M363.412,160.461l-.217-.125a1.006,1.006,0,0,1-.409-.442l-4.5-13.677a.281.281,0,0,1,0-.207.251.251,0,0,1,.14-.141l5.969-3.581a.752.752,0,0,1,.55.1l.217.12a.986.986,0,0,1,.409.447l4.5,13.677a.287.287,0,0,1,0,.206.257.257,0,0,1-.138.142l-5.969,3.581a.809.809,0,0,1-.55-.1Z" transform="translate(-358.262 -142.271)" fill="#ff7609"/>
          <path id="Tracciato_213" data-name="Tracciato 213" d="M363.412,160.461l-.217-.125a1.006,1.006,0,0,1-.409-.442l-4.5-13.677a.281.281,0,0,1,0-.207.251.251,0,0,1,.14-.141l5.969-3.581a.752.752,0,0,1,.55.1l.217.12a.986.986,0,0,1,.409.447l4.5,13.677a.287.287,0,0,1,0,.206.257.257,0,0,1-.138.142l-5.969,3.581a.809.809,0,0,1-.55-.1Z" transform="translate(-358.262 -142.271)" opacity="0.2"/>
          <path id="Tracciato_214" data-name="Tracciato 214" d="M363.919,163.686a.9.9,0,0,1-.5-.109l-.217-.125a.96.96,0,0,1-.409-.447l-4.5-13.672a.34.34,0,0,1,0-.213l.858.485a.3.3,0,0,0,0,.213l4.5,13.672A.268.268,0,0,0,363.919,163.686Z" transform="translate(-358.264 -145.386)" fill="#ff7609"/>
          <path id="Tracciato_215" data-name="Tracciato 215" d="M363.919,163.686a.9.9,0,0,1-.5-.109l-.217-.125a.96.96,0,0,1-.409-.447l-4.5-13.672a.34.34,0,0,1,0-.213l.858.485a.3.3,0,0,0,0,.213l4.5,13.672A.268.268,0,0,0,363.919,163.686Z" transform="translate(-358.264 -145.386)" opacity="0.4"/>
          <path id="Tracciato_216" data-name="Tracciato 216" d="M359.982,147.111l4.509,13.672a.255.255,0,0,0,.318.185l5.969-3.581a.257.257,0,0,0,.138-.142.287.287,0,0,0,0-.206l-4.5-13.677a.254.254,0,0,0-.318-.18l-5.974,3.576a.263.263,0,0,0-.139.146A.292.292,0,0,0,359.982,147.111Z" transform="translate(-359.105 -142.679)" fill="#ff7609"/>
          <path id="Tracciato_217" data-name="Tracciato 217" d="M359.982,147.111l4.509,13.672a.255.255,0,0,0,.318.185l5.969-3.581a.257.257,0,0,0,.138-.142.287.287,0,0,0,0-.206l-4.5-13.677a.254.254,0,0,0-.318-.18l-5.974,3.576a.263.263,0,0,0-.139.146A.292.292,0,0,0,359.982,147.111Z" transform="translate(-359.105 -142.679)" opacity="0.3"/>
          <path id="Tracciato_218" data-name="Tracciato 218" d="M361.506,149.17l5.312-3.178a.22.22,0,0,1,.273.158l3.626,11.022a.241.241,0,0,1-.121.3l-5.292,3.271a.214.214,0,0,1-.273-.153l-3.651-11.1a.252.252,0,0,1,0-.191A.225.225,0,0,1,361.506,149.17Z" transform="translate(-359.795 -143.96)" fill="#fff"/>
          <path id="Tracciato_219" data-name="Tracciato 219" d="M365.847,147.235a.166.166,0,0,1,.227.082.18.18,0,0,1,.023.136.168.168,0,0,1-.079.109.171.171,0,0,1-.213-.086A.2.2,0,0,1,365.847,147.235Z" transform="translate(-361.985 -144.52)" fill="#263238"/>
          <path id="Tracciato_220" data-name="Tracciato 220" d="M365.374,148.074c.3-.169.813-.491,1.1-.665a.1.1,0,0,1,.141.044.114.114,0,0,1-.04.147l-1.1.671a.1.1,0,0,1-.136-.044.111.111,0,0,1-.013-.087A.1.1,0,0,1,365.374,148.074Z" transform="translate(-361.754 -144.602)" fill="#263238"/>
          <path id="Tracciato_221" data-name="Tracciato 221" d="M364.845,148.931a.1.1,0,0,1,.131.044.109.109,0,0,1-.03.142.1.1,0,0,1-.123-.047A.115.115,0,0,1,364.845,148.931Z" transform="translate(-361.503 -145.296)" fill="#263238"/>
          <path id="Tracciato_222" data-name="Tracciato 222" d="M374.945,170.538a.344.344,0,0,1,.424.24.38.38,0,0,1,0,.279.322.322,0,0,1-.618-.05.387.387,0,0,1,.007-.279A.345.345,0,0,1,374.945,170.538Z" transform="translate(-366.411 -155.123)" fill="#263238"/>
          <path id="Tracciato_223" data-name="Tracciato 223" d="M367.5,151.8l.863,1.232a.112.112,0,0,0,.131.049l1.065-.5c.111-.055.212.136.172.322l-.4,1.755a.341.341,0,0,0,0,.224l.626,1.592c.066.169,0,.387-.126.371l-1.111-.142a.122.122,0,0,0-.116.087l-.682,1.483c-.071.153-.217.1-.247-.093l-.283-1.848a.256.256,0,0,0-.091-.169l-1.045-.676a.334.334,0,0,1-.03-.431l.934-1a.314.314,0,0,0,.066-.191l.03-1.9C367.277,151.774,367.409,151.671,367.5,151.8Z" transform="translate(-362.173 -146.58)" fill="#ff7609"/>
        </g>
        <path id="Tracciato_224" data-name="Tracciato 224" d="M402.935,154.45c-3.292.305-4.7.954-7.166,5.762-2.681,5.222-7.832,14.664-8.489,15.858a6.759,6.759,0,0,0-.293,5.707c.732,1.423,3.03,2.071,5.691-1.145,3.136-3.816,8.968-13.159,8.968-13.159S406.607,160.419,402.935,154.45Z" transform="translate(-371.667 -126.911)" fill="#ffa8a7"/>
        <path id="Tracciato_225" data-name="Tracciato 225" d="M373.824,183.636c-2.525-.327-8.413-8.956-10.1-11.775a19.512,19.512,0,0,0-5.105-5.811,3.873,3.873,0,0,1-1.01-1.09,3.046,3.046,0,0,1-.288-1.374,12.75,12.75,0,0,0-.03-1.864,4.9,4.9,0,0,1-.151-1.09c.03-.354.2-.681.253-1.036a6.64,6.64,0,0,0-.04-1.3,1.746,1.746,0,0,1,.157-.845,3.385,3.385,0,0,1,.535-.654,6.917,6.917,0,0,1,.838-.654l.869,2.573.838,2.464c.318.322.853.949,1.207.305a1.4,1.4,0,0,0,.136-.545c.061-.627,0-1.27.116-1.886a2.523,2.523,0,0,1,.434-1.09c.151-.2.6-.649.848-.414a.517.517,0,0,1,.131.283,8.182,8.182,0,0,1,0,.861c.045.365.167.73.232,1.09a16.76,16.76,0,0,1,.242,2.246,12.418,12.418,0,0,0,.076,1.663,3.963,3.963,0,0,0,.611,1.8c.656,1.014,9.448,10.107,9.448,10.107Z" transform="translate(-357.14 -127.68)" fill="#ffa8a7"/>
        <path id="Tracciato_226" data-name="Tracciato 226" d="M397.866,154.106a6.8,6.8,0,0,0-6.247,2.889c-1.858,2.6-9.281,16.757-9.281,16.757l-4.166-4.034a7.849,7.849,0,0,0-3.2,4.906,48.559,48.559,0,0,0,3.772,5.528c1.762,2.088,3.727,3.532,5.338,2.895s3.252-2.022,6.721-7.234,7.257-11.366,7.257-11.366S400.446,158.407,397.866,154.106Z" transform="translate(-365.966 -126.752)" fill="#455a64"/>
        <path id="Tracciato_227" data-name="Tracciato 227" d="M416.7,124.75s-1.793,2.944-1.591,3.233,1.515.545,1.515.545Z" transform="translate(-385.826 -113.401)" fill="#f28f8f"/>
        <path id="Tracciato_228" data-name="Tracciato 228" d="M417.836,124.363a2.318,2.318,0,1,1,2.136-2.311A2.23,2.23,0,0,1,417.836,124.363Zm0-4.1a1.67,1.67,0,0,0-1.544,1.108,1.9,1.9,0,0,0,.36,1.963,1.578,1.578,0,0,0,1.818.389,1.806,1.806,0,0,0,1.026-1.666A1.736,1.736,0,0,0,417.836,120.258Z" transform="translate(-386.124 -111.122)" fill="#263238"/>
        <path id="Tracciato_229" data-name="Tracciato 229" d="M423.117,109.519c-3.631.823-4.681,2.551-5.019,8.776-.359,6.509.258,8.553,1.045,9.431.535.589,3.535.7,5,.251,1.878-.545,6.115-2.181,8.08-5.451,2.338-3.854,2.949-9.071.449-11.213C429.182,108.3,424.6,109.181,423.117,109.519Z" transform="translate(-387.264 -106.297)" fill="#ffa8a7"/>
        <path id="Tracciato_230" data-name="Tracciato 230" d="M424.578,143l-.167-1.194a6.76,6.76,0,0,1-3.722.91A7.942,7.942,0,0,0,424.578,143Z" transform="translate(-388.599 -121.161)" fill="#f28f8f"/>
        <path id="Tracciato_231" data-name="Tracciato 231" d="M416.1,123.1l6.454.9-.258.491-6.2-.867Z" transform="translate(-386.327 -112.651)" fill="#263238"/>
        <path id="Tracciato_232" data-name="Tracciato 232" d="M416.1,109.731a2.913,2.913,0,0,0,.283,1.733,2.542,2.542,0,0,0,2.429,1.385c-.167,0,.46.878.505.927a1.252,1.252,0,0,0,.949.4c.131.872.071,1.783.97,2.18,0,0,.571-2.4,2.449-2.1s2.146,2.906.954,4.481-2.288.987-2.3.976c.106.06.146.829.182.97a7.566,7.566,0,0,0,.5,1.319,6.182,6.182,0,0,0,1.7,2.148,4.781,4.781,0,0,0,2.05,1.079,7.46,7.46,0,0,0,2.166-.311,41.989,41.989,0,0,0,4.348-8.22,12,12,0,0,0,1.045-4.11,5.945,5.945,0,0,0-.692-3.385,3.464,3.464,0,0,0-2.353-1.515,4.036,4.036,0,0,0-2.02-3,6.414,6.414,0,0,0-3.464-.741c-1.192.033-2.373.256-3.535.387a35.747,35.747,0,0,1-7.363-.169.382.382,0,0,0-.258.033.457.457,0,0,0-.146.283,3.249,3.249,0,0,0,2.086,4.039A2.763,2.763,0,0,0,416.1,109.731Z" transform="translate(-385.489 -103.931)" fill="#263238"/>
        <path id="Tracciato_233" data-name="Tracciato 233" d="M426.664,127l.066-2.726a1.367,1.367,0,0,0-.066,2.726Z" transform="translate(-390.947 -113.182)" fill="#263238"/>
      </g>
    </g>
  </g>
</svg>
